<svg width="24" height="24" viewBox="0 0 24 24" fill="none" xmlns="http://www.w3.org/2000/svg">
<path d="M3.62669 24H20.3734C22.1289 24 23.5556 22.5733 23.5556 20.8178V4.95998C23.5556 3.20442 22.1289 1.77774 20.3734 1.77774H19.1111V0.888872C19.1111 0.399978 18.7111 0 18.2222 0C17.7333 0 17.3333 0.399978 17.3333 0.888872V1.77774H6.66671V0.888872C6.66671 0.399978 6.26666 0 5.77777 0C5.28887 0 4.88889 0.399978 4.88889 0.888872V1.77774H3.62669C1.87114 1.77774 0.444458 3.20442 0.444458 4.95998V20.8178C0.444458 22.5733 1.87114 24 3.62669 24ZM2.22228 4.95998C2.22228 4.18667 2.85338 3.55556 3.62669 3.55556H4.88889V4.44444C4.88889 4.93333 5.28887 5.33331 5.77777 5.33331C6.26666 5.33331 6.66664 4.93333 6.66664 4.44444V3.55556H17.3333V4.44444C17.3333 4.93333 17.7333 5.33331 18.2222 5.33331C18.7111 5.33331 19.1111 4.93333 19.1111 4.44444V3.55556H20.3733C21.1466 3.55556 21.7777 4.18667 21.7777 4.95998V7.55556H2.22228V4.95998ZM2.22228 9.33331H21.7778V20.8178C21.7778 21.5911 21.1467 22.2222 20.3734 22.2222H3.62669C2.85338 22.2222 2.22228 21.5911 2.22228 20.8178V9.33331Z" fill="url(#paint0_linear_899_37294)"/>
<defs>
<linearGradient id="paint0_linear_899_37294" x1="12" y1="2.97987" x2="12" y2="15.9463" gradientUnits="userSpaceOnUse">
<stop stop-color="#E2B64A"/>
<stop offset="0.473958" stop-color="#FFE684"/>
<stop offset="1" stop-color="#CF9E4B"/>
</linearGradient>
</defs>
</svg>
