<svg width="18" height="20" viewBox="0 0 18 20" fill="none" xmlns="http://www.w3.org/2000/svg">
<path d="M2.58333 19.1673C2.07917 19.1673 1.64757 18.9878 1.28854 18.6288C0.929514 18.2697 0.75 17.8381 0.75 17.334V4.50065C0.75 3.99648 0.929514 3.56489 1.28854 3.20586C1.64757 2.84683 2.07917 2.66732 2.58333 2.66732H3.5V0.833984H5.33333V2.66732H12.6667V0.833984H14.5V2.66732H15.4167C15.9208 2.66732 16.3524 2.84683 16.7115 3.20586C17.0705 3.56489 17.25 3.99648 17.25 4.50065V17.334C17.25 17.8381 17.0705 18.2697 16.7115 18.6288C16.3524 18.9878 15.9208 19.1673 15.4167 19.1673H2.58333ZM2.58333 17.334H15.4167V8.16732H2.58333V17.334ZM2.58333 6.33398H15.4167V4.50065H2.58333V6.33398ZM9 11.834C8.74028 11.834 8.52257 11.7461 8.34688 11.5704C8.17118 11.3947 8.08333 11.177 8.08333 10.9173C8.08333 10.6576 8.17118 10.4399 8.34688 10.2642C8.52257 10.0885 8.74028 10.0006 9 10.0006C9.25972 10.0006 9.47743 10.0885 9.65313 10.2642C9.82882 10.4399 9.91667 10.6576 9.91667 10.9173C9.91667 11.177 9.82882 11.3947 9.65313 11.5704C9.47743 11.7461 9.25972 11.834 9 11.834ZM5.33333 11.834C5.07361 11.834 4.8559 11.7461 4.68021 11.5704C4.50451 11.3947 4.41667 11.177 4.41667 10.9173C4.41667 10.6576 4.50451 10.4399 4.68021 10.2642C4.8559 10.0885 5.07361 10.0006 5.33333 10.0006C5.59306 10.0006 5.81076 10.0885 5.98646 10.2642C6.16215 10.4399 6.25 10.6576 6.25 10.9173C6.25 11.177 6.16215 11.3947 5.98646 11.5704C5.81076 11.7461 5.59306 11.834 5.33333 11.834ZM12.6667 11.834C12.4069 11.834 12.1892 11.7461 12.0135 11.5704C11.8378 11.3947 11.75 11.177 11.75 10.9173C11.75 10.6576 11.8378 10.4399 12.0135 10.2642C12.1892 10.0885 12.4069 10.0006 12.6667 10.0006C12.9264 10.0006 13.1441 10.0885 13.3198 10.2642C13.4955 10.4399 13.5833 10.6576 13.5833 10.9173C13.5833 11.177 13.4955 11.3947 13.3198 11.5704C13.1441 11.7461 12.9264 11.834 12.6667 11.834ZM9 15.5006C8.74028 15.5006 8.52257 15.4128 8.34688 15.2371C8.17118 15.0614 8.08333 14.8437 8.08333 14.584C8.08333 14.3243 8.17118 14.1066 8.34688 13.9309C8.52257 13.7552 8.74028 13.6673 9 13.6673C9.25972 13.6673 9.47743 13.7552 9.65313 13.9309C9.82882 14.1066 9.91667 14.3243 9.91667 14.584C9.91667 14.8437 9.82882 15.0614 9.65313 15.2371C9.47743 15.4128 9.25972 15.5006 9 15.5006ZM5.33333 15.5006C5.07361 15.5006 4.8559 15.4128 4.68021 15.2371C4.50451 15.0614 4.41667 14.8437 4.41667 14.584C4.41667 14.3243 4.50451 14.1066 4.68021 13.9309C4.8559 13.7552 5.07361 13.6673 5.33333 13.6673C5.59306 13.6673 5.81076 13.7552 5.98646 13.9309C6.16215 14.1066 6.25 14.3243 6.25 14.584C6.25 14.8437 6.16215 15.0614 5.98646 15.2371C5.81076 15.4128 5.59306 15.5006 5.33333 15.5006ZM12.6667 15.5006C12.4069 15.5006 12.1892 15.4128 12.0135 15.2371C11.8378 15.0614 11.75 14.8437 11.75 14.584C11.75 14.3243 11.8378 14.1066 12.0135 13.9309C12.1892 13.7552 12.4069 13.6673 12.6667 13.6673C12.9264 13.6673 13.1441 13.7552 13.3198 13.9309C13.4955 14.1066 13.5833 14.3243 13.5833 14.584C13.5833 14.8437 13.4955 15.0614 13.3198 15.2371C13.1441 15.4128 12.9264 15.5006 12.6667 15.5006Z" fill="url(#paint0_linear_78_302)"/>
<defs>
<linearGradient id="paint0_linear_78_302" x1="9" y1="3.11027" x2="9" y2="13.0152" gradientUnits="userSpaceOnUse">
<stop stop-color="#E2B64A"/>
<stop offset="0.473958" stop-color="#FFE684"/>
<stop offset="1" stop-color="#CF9E4B"/>
</linearGradient>
</defs>
</svg>
