<svg width="38" height="53" viewBox="0 0 38 53" fill="none" xmlns="http://www.w3.org/2000/svg">
<path d="M5.18652 3.87988L35.9995 25.0001" stroke="url(#paint0_linear_5_6318)" stroke-width="2" stroke-linecap="round"/>
<path d="M5.18555 24.9998L35.9985 3.87956" stroke="url(#paint1_linear_5_6318)" stroke-width="2" stroke-linecap="round"/>
<circle cx="6" cy="5" r="4" fill="#131112" stroke="url(#paint2_linear_5_6318)" stroke-width="2"/>
<circle cx="6" cy="24" r="4" fill="#131112" stroke="url(#paint3_linear_5_6318)" stroke-width="2"/>
<path d="M4.44602 52.1014C3.82113 52.1014 3.29758 52.0634 2.87536 51.9874C2.45313 51.903 2.10691 51.7636 1.83669 51.5694C1.57491 51.3752 1.37225 51.1134 1.22869 50.7841C1.09358 50.4463 1.00069 50.0199 0.950023 49.5047C0.899357 48.9896 0.874023 48.369 0.874023 47.6427C0.874023 46.9165 0.899357 46.2959 0.950023 45.7807C1.00069 45.2656 1.09358 44.8434 1.22869 44.5141C1.37225 44.1763 1.57491 43.9103 1.83669 43.7161C2.10691 43.5219 2.45313 43.3867 2.87536 43.3107C3.29758 43.2263 3.82113 43.1841 4.44602 43.1841C4.69091 43.1841 4.94002 43.1925 5.19336 43.2094C5.45513 43.2263 5.70425 43.2516 5.94069 43.2854C6.17713 43.3107 6.3798 43.3445 6.54869 43.3867V44.5267C6.33758 44.5014 6.12647 44.4803 5.91536 44.4634C5.71269 44.4381 5.51425 44.4212 5.32002 44.4127C5.1258 44.4043 4.95691 44.4001 4.81336 44.4001C4.34891 44.4001 3.96469 44.417 3.66069 44.4507C3.35669 44.4845 3.1118 44.5605 2.92602 44.6787C2.74869 44.797 2.61358 44.9743 2.52069 45.2107C2.43625 45.4387 2.37713 45.7512 2.34336 46.1481C2.31802 46.545 2.30536 47.0432 2.30536 47.6427C2.30536 48.2339 2.31802 48.7321 2.34336 49.1374C2.37713 49.5343 2.43625 49.851 2.52069 50.0874C2.61358 50.3154 2.74869 50.4885 2.92602 50.6067C3.1118 50.725 3.35669 50.801 3.66069 50.8347C3.96469 50.8685 4.34891 50.8854 4.81336 50.8854C5.09202 50.8854 5.39602 50.8727 5.72536 50.8474C6.06313 50.8221 6.35447 50.7925 6.59936 50.7587V51.9241C6.41358 51.9579 6.19402 51.9874 5.94069 52.0127C5.6958 52.0381 5.44247 52.0592 5.18069 52.0761C4.92736 52.093 4.68247 52.1014 4.44602 52.1014Z" fill="url(#paint4_linear_5_6318)"/>
<path d="M8.42642 52.0001V43.2854H9.85776V50.7461H13.7211V52.0001H8.42642Z" fill="url(#paint5_linear_5_6318)"/>
<path d="M18.5859 52.1014C17.8934 52.1014 17.3234 52.0634 16.8759 51.9874C16.4283 51.903 16.0737 51.7636 15.8119 51.5694C15.5501 51.3752 15.3601 51.1092 15.2419 50.7714C15.1237 50.4336 15.0477 50.0114 15.0139 49.5047C14.9801 48.9896 14.9632 48.369 14.9632 47.6427C14.9632 46.9165 14.9801 46.3001 15.0139 45.7934C15.0477 45.2783 15.1237 44.8519 15.2419 44.5141C15.3601 44.1763 15.5501 43.9103 15.8119 43.7161C16.0737 43.5219 16.4283 43.3867 16.8759 43.3107C17.3234 43.2263 17.8934 43.1841 18.5859 43.1841C19.2783 43.1841 19.8483 43.2263 20.2959 43.3107C20.7519 43.3867 21.1108 43.5219 21.3726 43.7161C21.6343 43.9103 21.8243 44.1763 21.9426 44.5141C22.0692 44.8519 22.1494 45.2783 22.1832 45.7934C22.217 46.3001 22.2339 46.9165 22.2339 47.6427C22.2339 48.369 22.217 48.9896 22.1832 49.5047C22.1494 50.0114 22.0692 50.4336 21.9426 50.7714C21.8243 51.1092 21.6343 51.3752 21.3726 51.5694C21.1108 51.7636 20.7519 51.903 20.2959 51.9874C19.8483 52.0634 19.2783 52.1014 18.5859 52.1014ZM18.5859 50.8854C19.0081 50.8854 19.3543 50.8727 19.6245 50.8474C19.9032 50.8221 20.1185 50.7587 20.2705 50.6574C20.431 50.5561 20.5492 50.3914 20.6252 50.1634C20.7012 49.927 20.7477 49.6103 20.7646 49.2134C20.7899 48.8081 20.8026 48.2845 20.8026 47.6427C20.8026 47.001 20.7899 46.4816 20.7646 46.0847C20.7477 45.6794 20.7012 45.3627 20.6252 45.1347C20.5492 44.8983 20.431 44.7294 20.2705 44.6281C20.1185 44.5267 19.9032 44.4634 19.6245 44.4381C19.3543 44.4127 19.0081 44.4001 18.5859 44.4001C18.1721 44.4001 17.8301 44.4127 17.5599 44.4381C17.2897 44.4634 17.0743 44.5267 16.9139 44.6281C16.7534 44.7294 16.6352 44.8983 16.5592 45.1347C16.4917 45.3627 16.4452 45.6794 16.4199 46.0847C16.403 46.4816 16.3946 47.001 16.3946 47.6427C16.3946 48.2845 16.403 48.8081 16.4199 49.2134C16.4452 49.6103 16.4917 49.927 16.5592 50.1634C16.6352 50.3914 16.7534 50.5561 16.9139 50.6574C17.0743 50.7587 17.2897 50.8221 17.5599 50.8474C17.8301 50.8727 18.1721 50.8854 18.5859 50.8854Z" fill="url(#paint6_linear_5_6318)"/>
<path d="M27.2361 52.1014C26.9237 52.1014 26.5775 52.093 26.1975 52.0761C25.8259 52.0592 25.4586 52.0339 25.0955 52.0001C24.7408 51.9747 24.4157 51.9452 24.1201 51.9114V50.7334C24.4241 50.7587 24.7408 50.7841 25.0701 50.8094C25.4079 50.8347 25.7288 50.8559 26.0328 50.8727C26.3368 50.8812 26.5986 50.8854 26.8181 50.8854C27.2657 50.8854 27.6161 50.8643 27.8695 50.8221C28.1228 50.7799 28.3255 50.7123 28.4775 50.6194C28.5788 50.5519 28.6506 50.4674 28.6928 50.3661C28.7435 50.2647 28.773 50.1465 28.7815 50.0114C28.7984 49.8679 28.8068 49.7116 28.8068 49.5427C28.8068 49.3147 28.7984 49.1247 28.7815 48.9727C28.7646 48.8207 28.7266 48.7025 28.6675 48.6181C28.6084 48.5336 28.5155 48.4745 28.3888 48.4407C28.2621 48.3985 28.0975 48.3647 27.8948 48.3394L25.8175 48.0987C25.4121 48.0481 25.0786 47.9636 24.8168 47.8454C24.5635 47.7187 24.365 47.5541 24.2215 47.3514C24.0864 47.1487 23.9935 46.9081 23.9428 46.6294C23.8921 46.3507 23.8668 46.0425 23.8668 45.7047C23.8668 45.139 23.9428 44.6914 24.0948 44.3621C24.2468 44.0327 24.4621 43.7836 24.7408 43.6147C25.0279 43.4374 25.3657 43.3234 25.7541 43.2727C26.1426 43.2136 26.5732 43.1841 27.0461 43.1841C27.3755 43.1841 27.7132 43.1967 28.0595 43.2221C28.4057 43.239 28.7308 43.2643 29.0348 43.2981C29.3472 43.3234 29.6048 43.3614 29.8075 43.4121V44.5647C29.5964 44.531 29.3472 44.5014 29.0601 44.4761C28.7815 44.4507 28.4901 44.4339 28.1861 44.4254C27.8821 44.4085 27.5992 44.4001 27.3375 44.4001C26.8984 44.4001 26.5437 44.4212 26.2735 44.4634C26.0117 44.4972 25.809 44.5563 25.6655 44.6407C25.4966 44.7336 25.3952 44.8645 25.3615 45.0334C25.3277 45.1939 25.3108 45.3965 25.3108 45.6414C25.3108 45.9285 25.3277 46.1523 25.3615 46.3127C25.4037 46.4647 25.4924 46.5703 25.6275 46.6294C25.771 46.6885 25.9864 46.735 26.2735 46.7687L28.3508 47.0094C28.6126 47.0347 28.849 47.077 29.0601 47.1361C29.2712 47.1867 29.457 47.2754 29.6175 47.4021C29.7864 47.5287 29.9172 47.7103 30.0101 47.9467C30.0692 48.065 30.1115 48.2001 30.1368 48.3521C30.1706 48.5041 30.1959 48.673 30.2128 48.8587C30.2381 49.0361 30.2508 49.2387 30.2508 49.4667C30.2508 49.9481 30.2001 50.3492 30.0988 50.6701C30.0059 50.991 29.8708 51.2485 29.6935 51.4427C29.5246 51.6285 29.3135 51.7721 29.0601 51.8734C28.8068 51.9663 28.5281 52.0254 28.2241 52.0507C27.9201 52.0845 27.5908 52.1014 27.2361 52.1014Z" fill="url(#paint7_linear_5_6318)"/>
<path d="M32.1764 52.0001V43.2854H37.9778V44.5014H33.6078V46.9967H37.3824V48.2127H33.6078V50.7841H37.9778V52.0001H32.1764Z" fill="url(#paint8_linear_5_6318)"/>
<defs>
<linearGradient id="paint0_linear_5_6318" x1="20.4906" y1="14.5102" x2="20.2057" y2="14.9258" gradientUnits="userSpaceOnUse">
<stop stop-color="#E2B64A"/>
<stop offset="0.473958" stop-color="#FFE684"/>
<stop offset="1" stop-color="#CF9E4B"/>
</linearGradient>
<linearGradient id="paint1_linear_5_6318" x1="20.6945" y1="14.5099" x2="20.9793" y2="14.9255" gradientUnits="userSpaceOnUse">
<stop stop-color="#E2B64A"/>
<stop offset="0.473958" stop-color="#FFE684"/>
<stop offset="1" stop-color="#CF9E4B"/>
</linearGradient>
<linearGradient id="paint2_linear_5_6318" x1="6" y1="1.24161" x2="6" y2="6.64429" gradientUnits="userSpaceOnUse">
<stop stop-color="#E2B64A"/>
<stop offset="0.473958" stop-color="#FFE684"/>
<stop offset="1" stop-color="#CF9E4B"/>
</linearGradient>
<linearGradient id="paint3_linear_5_6318" x1="6" y1="20.2416" x2="6" y2="25.6443" gradientUnits="userSpaceOnUse">
<stop stop-color="#E2B64A"/>
<stop offset="0.473958" stop-color="#FFE684"/>
<stop offset="1" stop-color="#CF9E4B"/>
</linearGradient>
<linearGradient id="paint4_linear_5_6318" x1="19.4259" y1="44.2913" x2="19.4259" y2="49.109" gradientUnits="userSpaceOnUse">
<stop stop-color="#E2B64A"/>
<stop offset="0.473958" stop-color="#FFE684"/>
<stop offset="1" stop-color="#CF9E4B"/>
</linearGradient>
<linearGradient id="paint5_linear_5_6318" x1="19.4259" y1="44.2913" x2="19.4259" y2="49.109" gradientUnits="userSpaceOnUse">
<stop stop-color="#E2B64A"/>
<stop offset="0.473958" stop-color="#FFE684"/>
<stop offset="1" stop-color="#CF9E4B"/>
</linearGradient>
<linearGradient id="paint6_linear_5_6318" x1="19.4259" y1="44.2913" x2="19.4259" y2="49.109" gradientUnits="userSpaceOnUse">
<stop stop-color="#E2B64A"/>
<stop offset="0.473958" stop-color="#FFE684"/>
<stop offset="1" stop-color="#CF9E4B"/>
</linearGradient>
<linearGradient id="paint7_linear_5_6318" x1="19.4259" y1="44.2913" x2="19.4259" y2="49.109" gradientUnits="userSpaceOnUse">
<stop stop-color="#E2B64A"/>
<stop offset="0.473958" stop-color="#FFE684"/>
<stop offset="1" stop-color="#CF9E4B"/>
</linearGradient>
<linearGradient id="paint8_linear_5_6318" x1="19.4259" y1="44.2913" x2="19.4259" y2="49.109" gradientUnits="userSpaceOnUse">
<stop stop-color="#E2B64A"/>
<stop offset="0.473958" stop-color="#FFE684"/>
<stop offset="1" stop-color="#CF9E4B"/>
</linearGradient>
</defs>
</svg>
