<svg width="47" height="45" viewBox="0 0 47 45" fill="none" xmlns="http://www.w3.org/2000/svg">
<path fill-rule="evenodd" clip-rule="evenodd" d="M24.3907 4.60933C25.6511 4.4877 26.6336 3.50512 26.6336 2.311C26.6336 1.03467 25.5113 0 24.1269 0C22.7425 0 21.6202 1.03467 21.6202 2.311C21.6202 3.43809 22.495 4.37672 23.653 4.58083L20.9936 30.9096L13.0311 8.25382C14.0174 7.94309 14.7269 7.0811 14.7269 6.0664C14.7269 4.79005 13.6046 3.75538 12.2202 3.75538C10.8358 3.75538 9.71356 4.79005 9.71356 6.0664C9.71356 7.34272 10.8358 8.37739 12.2202 8.37739C12.2549 8.37739 12.289 8.37674 12.3237 8.37545L15.3536 32.4984L3.94952 14.6004C4.59298 14.1821 5.01328 13.4916 5.01328 12.7105C5.01328 11.4341 3.89102 10.3995 2.50661 10.3995C1.12226 10.3995 0 11.4341 0 12.7105C0 13.9868 1.12226 15.0215 2.50661 15.0215C2.77635 15.0215 3.03633 14.9822 3.27952 14.9095L12.5333 41.0203C13.6301 43.6201 18.1733 45 24.44 45C31.4898 45 35.2499 43.0424 36.1901 41.0203L43.7578 14.9204C43.9907 14.9861 44.2377 15.0215 44.4933 15.0215C45.8777 15.0215 47 13.9868 47 12.7105C47 11.4341 45.8777 10.3995 44.4933 10.3995C43.1089 10.3995 41.9867 11.4341 41.9867 12.7105C41.9867 13.5387 42.459 14.2651 43.169 14.6731L33.84 32.4984L35.31 8.34663C35.4438 8.36686 35.5802 8.37739 35.72 8.37739C37.1044 8.37739 38.2267 7.34272 38.2267 6.0664C38.2267 4.79005 37.1044 3.75538 35.72 3.75538C34.3356 3.75538 33.2133 4.79005 33.2133 6.0664C33.2133 6.91588 33.7105 7.65828 34.4509 8.05989L27.8869 30.9096L24.3907 4.60933ZM24.1594 35.4725C24.2748 35.2592 24.6052 35.2592 24.7205 35.4725L25.7892 37.4495C25.8569 37.5741 26.0107 37.6367 26.1559 37.5983L29.7945 36.6386C30.1325 36.5494 30.3486 36.9621 30.0632 37.151L28.6501 38.0859C28.4155 38.2409 28.5141 38.5808 28.8012 38.6079L31.4211 38.8552C31.7964 38.8906 31.7964 39.3945 31.4211 39.4299L28.8012 39.6772C28.5141 39.7043 28.4155 40.0443 28.6501 40.1993L30.0632 41.1342C30.3486 41.3231 30.1325 41.7357 29.7945 41.6466L26.1559 40.6868C26.0107 40.6485 25.8569 40.7111 25.7892 40.8356L24.7205 42.8126C24.6052 43.026 24.2748 43.026 24.1594 42.8126L23.0908 40.8356C23.0231 40.7111 22.8692 40.6485 22.7241 40.6868L19.0854 41.6466C18.7474 41.7358 18.5313 41.3231 18.8168 41.1342L20.2299 40.1993C20.4644 40.0443 20.3658 39.7043 20.0793 39.6772L17.4589 39.4299C17.0835 39.3945 17.0835 38.8906 17.4589 38.8552L20.0793 38.6079C20.3658 38.5808 20.4644 38.2409 20.2299 38.0859L18.8168 37.151C18.5313 36.9621 18.7474 36.5494 19.0854 36.6386L22.7241 37.5983C22.8692 37.6367 23.0231 37.5741 23.0908 37.4495L24.1594 35.4725Z" fill="url(#paint0_linear_102_3)"/>
<defs>
<linearGradient id="paint0_linear_102_3" x1="23.5002" y1="5.58723" x2="23.5002" y2="29.8993" gradientUnits="userSpaceOnUse">
<stop stop-color="#E2B64A"/>
<stop offset="0.473958" stop-color="#FFE684"/>
<stop offset="1" stop-color="#CF9E4B"/>
</linearGradient>
</defs>
</svg>
