<svg width="65" height="57" viewBox="0 0 65 57" fill="none" xmlns="http://www.w3.org/2000/svg">
<g clip-path="url(#clip0_870_13212)">
<path d="M50.9588 33.2374C50.111 32.35 49.0518 31.6333 47.8544 31.1368C46.6569 30.6402 45.3497 30.3757 44.0232 30.3614C42.6966 30.3471 41.3823 30.5835 40.1711 31.0541C38.9598 31.5248 37.8806 32.2185 37.0079 33.0874L32.566 28.4374C31.4036 27.228 29.8575 26.343 28.1204 25.8928C26.3833 25.4427 24.5322 25.4473 22.7982 25.9061C21.0064 26.4022 19.4234 27.3482 18.2485 28.6249L7.61817 39.7249C7.40469 39.9244 7.24018 40.1596 7.13468 40.4162C7.02918 40.6728 6.9849 40.9454 7.00453 41.2173C7.02417 41.4893 7.10732 41.7549 7.2489 41.998C7.39049 42.2411 7.58754 42.4566 7.82804 42.6313C8.06854 42.806 8.34745 42.9363 8.64775 43.0142C8.94805 43.0921 9.26345 43.1159 9.57472 43.0843C9.88598 43.0527 10.1866 42.9663 10.4582 42.8304C10.7298 42.6944 10.9667 42.5118 11.1544 42.2936L21.9357 31.0436C22.3666 30.5914 22.907 30.2275 23.5182 29.9776C24.1295 29.7278 24.7965 29.5983 25.4719 29.5983C26.1473 29.5983 26.8144 29.7278 27.4256 29.9776C28.0369 30.2275 28.5772 30.5914 29.0082 31.0436L38.3232 40.7749C38.5034 41.0047 38.7367 41.1993 39.0081 41.3465C39.2796 41.4937 39.5832 41.5903 39.8998 41.6299C40.2165 41.6696 40.5391 41.6516 40.8473 41.5771C41.1555 41.5026 41.4425 41.3731 41.6901 41.197C41.9376 41.0208 42.1404 40.8018 42.2854 40.5539C42.4305 40.306 42.5147 40.0346 42.5326 39.7568C42.5506 39.4791 42.5019 39.2012 42.3897 38.9407C42.2776 38.6802 42.1043 38.4428 41.881 38.2436L39.9835 36.2561L40.35 35.8624C40.795 35.4297 41.34 35.0835 41.9493 34.8465C42.5587 34.6094 43.2187 34.4869 43.8863 34.4869C44.5538 34.4869 45.2139 34.6094 45.8232 34.8465C46.4326 35.0835 46.9776 35.4297 47.4225 35.8624L53.6325 42.3311C54.0348 42.7071 54.5876 42.9345 55.177 42.9667C55.7664 42.9989 56.3475 42.8333 56.8007 42.5041C57.2539 42.1749 57.5447 41.7071 57.6132 41.197C57.6817 40.687 57.5226 40.1735 57.1688 39.7624L50.9588 33.2374Z" fill="url(#paint0_linear_870_13212)" stroke="#0F1214" stroke-width="0.8"/>
<path d="M49.5 24C50.7856 24 52.0423 23.6481 53.1112 22.9888C54.1801 22.3295 55.0132 21.3925 55.5052 20.2961C55.9972 19.1997 56.1259 17.9933 55.8751 16.8295C55.6243 15.6656 55.0052 14.5965 54.0962 13.7574C53.1872 12.9182 52.029 12.3468 50.7681 12.1153C49.5072 11.8838 48.2003 12.0026 47.0126 12.4567C45.8248 12.9109 44.8097 13.6799 44.0954 14.6666C43.3812 15.6533 43 16.8133 43 18C43.0046 19.59 43.6909 21.1137 44.9089 22.238C46.1269 23.3623 47.7775 23.9958 49.5 24ZM49.5 15.4263C50.0515 15.4263 50.5905 15.5772 51.049 15.86C51.5076 16.1428 51.8649 16.5448 52.076 17.0151C52.287 17.4854 52.3422 18.0029 52.2346 18.5021C52.127 19.0014 51.8615 19.46 51.4716 19.8199C51.0816 20.1798 50.5848 20.425 50.0439 20.5243C49.5031 20.6236 48.9425 20.5726 48.433 20.3778C47.9235 20.183 47.4881 19.8531 47.1817 19.4299C46.8753 19.0066 46.7118 18.509 46.7118 18C46.7118 17.662 46.7839 17.3273 46.924 17.0151C47.0642 16.7028 47.2695 16.4191 47.5284 16.1801C47.7873 15.9411 48.0947 15.7515 48.433 15.6222C48.7713 15.4928 49.1338 15.4263 49.5 15.4263Z" fill="#E2B64A"/>
<mask id="path-3-inside-1_870_13212" fill="white">
<rect width="65" height="57" rx="2"/>
</mask>
<rect width="65" height="57" rx="2" stroke="url(#paint1_linear_870_13212)" stroke-width="6" mask="url(#path-3-inside-1_870_13212)"/>
</g>
<defs>
<linearGradient id="paint0_linear_870_13212" x1="32.3144" y1="27.7363" x2="32.3144" y2="37.2122" gradientUnits="userSpaceOnUse">
<stop stop-color="#E2B64A"/>
<stop offset="0.473958" stop-color="#FFE684"/>
<stop offset="1" stop-color="#CF9E4B"/>
</linearGradient>
<linearGradient id="paint1_linear_870_13212" x1="32.5" y1="7.07718" x2="32.5" y2="37.8725" gradientUnits="userSpaceOnUse">
<stop stop-color="#E2B64A"/>
<stop offset="0.473958" stop-color="#FFE684"/>
<stop offset="1" stop-color="#CF9E4B"/>
</linearGradient>
<clipPath id="clip0_870_13212">
<rect width="65" height="57" fill="white"/>
</clipPath>
</defs>
</svg>
