<svg width="22" height="18" viewBox="0 0 22 18" fill="none" xmlns="http://www.w3.org/2000/svg">
<path d="M19.8378 7.5882C19.7544 7.57484 19.67 7.56868 19.5855 7.56976H5.20332L5.51693 7.42584C5.82347 7.28269 6.10234 7.08787 6.34106 6.85018L10.3742 2.87092C10.9054 2.37063 10.9946 1.56583 10.5857 0.964036C10.1098 0.322758 9.19706 0.18352 8.54706 0.653089C8.49455 0.691047 8.44464 0.732422 8.39773 0.776946L1.10456 7.97272C0.534598 8.53444 0.534097 9.44565 1.10342 10.008C1.10378 10.0084 1.10419 10.0088 1.10456 10.0091L8.39773 17.2049C8.96815 17.7661 9.89169 17.7649 10.4606 17.2021C10.5053 17.1578 10.5471 17.1106 10.5857 17.061C10.9946 16.4592 10.9054 15.6544 10.3742 15.1541L6.34835 11.1676C6.13434 10.9563 5.88829 10.779 5.61903 10.6424L5.18144 10.4481H19.5052C20.2504 10.4754 20.9041 9.96182 21.0441 9.23918C21.173 8.45462 20.633 7.71548 19.8378 7.5882Z" fill="black"/>
</svg>
