<svg width="20" height="18" viewBox="0 0 20 18" fill="none" xmlns="http://www.w3.org/2000/svg">
<path d="M1.54766 7.64958C1.62744 7.63681 1.70819 7.63091 1.78898 7.63194H15.5459L15.2459 7.49429C14.9527 7.35736 14.6859 7.171 14.4576 6.94365L10.5998 3.1374C10.0917 2.65886 10.0064 1.88905 10.3975 1.31343C10.8527 0.700029 11.7258 0.566845 12.3475 1.016C12.3977 1.05231 12.4455 1.09188 12.4903 1.13447L19.4664 8.01739C20.0116 8.55469 20.0121 9.42628 19.4675 9.96418C19.4671 9.96452 19.4668 9.96491 19.4664 9.96525L12.4903 16.8482C11.9447 17.385 11.0613 17.3838 10.5172 16.8455C10.4744 16.8031 10.4344 16.758 10.3975 16.7105C10.0064 16.1349 10.0917 15.3651 10.5998 14.8865L14.4506 11.0734C14.6553 10.8712 14.8907 10.7017 15.1482 10.571L15.5668 10.3851H1.86576C1.15303 10.4112 0.527708 9.92 0.393811 9.22878C0.270465 8.47833 0.787045 7.77132 1.54766 7.64958Z" fill="black"/>
</svg>
