<svg width="16" height="19" viewBox="0 0 16 19" fill="none" xmlns="http://www.w3.org/2000/svg">
<path d="M8 0.833252C9.98912 0.833252 11.8968 1.62343 13.3033 3.02995C14.7098 4.43647 15.5 6.34413 15.5 8.33325C15.5 11.4383 13.1333 14.6916 8.5 18.1666C8.35575 18.2748 8.18031 18.3333 8 18.3333C7.81969 18.3333 7.64425 18.2748 7.5 18.1666C2.86667 14.6916 0.5 11.4383 0.5 8.33325C0.5 6.34413 1.29018 4.43647 2.6967 3.02995C4.10322 1.62343 6.01088 0.833252 8 0.833252ZM8 2.49992C6.4529 2.49992 4.96917 3.1145 3.87521 4.20846C2.78125 5.30242 2.16667 6.78616 2.16667 8.33325C2.16667 10.5916 3.93167 13.1966 7.54 16.0883L8 16.4516L8.46 16.0883C12.0683 13.1966 13.8333 10.5916 13.8333 8.33325C13.8333 6.78616 13.2188 5.30242 12.1248 4.20846C11.0308 3.1145 9.5471 2.49992 8 2.49992ZM8 6.66658C8.44203 6.66658 8.86595 6.84218 9.17851 7.15474C9.49107 7.4673 9.66667 7.89122 9.66667 8.33325C9.66667 8.77528 9.49107 9.1992 9.17851 9.51176C8.86595 9.82432 8.44203 9.99992 8 9.99992C7.55797 9.99992 7.13405 9.82432 6.82149 9.51176C6.50893 9.1992 6.33333 8.77528 6.33333 8.33325C6.33333 7.89122 6.50893 7.4673 6.82149 7.15474C7.13405 6.84218 7.55797 6.66658 8 6.66658Z" fill="url(#paint0_linear_890_12687)"/>
<defs>
<linearGradient id="paint0_linear_890_12687" x1="8" y1="3.00607" x2="8" y2="12.4608" gradientUnits="userSpaceOnUse">
<stop stop-color="#E2B64A"/>
<stop offset="0.473958" stop-color="#FFE684"/>
<stop offset="1" stop-color="#CF9E4B"/>
</linearGradient>
</defs>
</svg>
