<svg width="668" height="150" viewBox="0 0 668 150" fill="none" xmlns="http://www.w3.org/2000/svg">
<path d="M161.594 27.8594C161.594 30.3307 161.261 33.0397 160.596 35.9863C159.93 38.9329 159.289 40.4062 158.671 40.4062C158.196 40.4062 157.958 40.1686 157.958 39.6934C157.958 39.5508 158.006 39.3369 158.101 39.0518C159.384 35.7249 160.025 32.1367 160.025 28.2871C160.025 22.2988 158.243 17.4987 154.679 13.8867C151.114 10.2272 146.409 8.39746 140.563 8.39746C132.722 8.39746 124.642 10.9876 116.325 16.168C122.979 21.1107 126.306 26.8851 126.306 33.4912C126.306 44.0895 119.105 50.3867 104.705 52.3828C116.539 56.5176 122.456 64.098 122.456 75.124C122.456 83.2985 118.963 90.4512 111.977 96.582C105.038 102.713 96.9108 105.778 87.5957 105.778C83.1283 105.778 79.5638 104.614 76.9023 102.285C74.2884 100.004 72.9814 96.891 72.9814 92.9463C72.9814 86.863 75.7617 80.8509 81.3223 74.9102C86.9303 68.9219 92.5622 65.9277 98.2178 65.9277C101.354 65.9277 103.921 66.9258 105.917 68.9219C107.913 70.8704 108.911 73.3893 108.911 76.4785C108.911 78.332 108.341 80.637 107.2 83.3936C106.06 86.1501 105.133 87.5283 104.42 87.5283C103.897 87.5283 103.636 87.3382 103.636 86.958C103.636 86.7679 103.731 86.4827 103.921 86.1025C106.392 82.4906 107.628 79.235 107.628 76.3359C107.628 73.627 106.749 71.4408 104.99 69.7773C103.232 68.1139 100.927 67.2822 98.0752 67.2822C92.7048 67.2822 87.4531 70.11 82.3203 75.7656C77.1875 81.4212 74.6211 87.1956 74.6211 93.0889C74.6211 96.2256 75.6904 98.8395 77.8291 100.931C79.9678 103.022 82.6292 104.067 85.8135 104.067C93.085 104.067 99.7386 100.55 105.774 93.5166C111.858 86.4352 114.899 78.6647 114.899 70.2051C114.899 62.3158 111.097 56.5176 103.493 52.8105L99.3584 53.3096C98.2178 53.4521 97.0771 53.5234 95.9365 53.5234C92.3245 53.5234 90.5186 52.9294 90.5186 51.7412C90.5186 50.8857 92.0156 50.458 95.0098 50.458C97.1484 50.458 99.9762 50.8857 103.493 51.7412C108.436 50.2204 112.333 47.5589 115.185 43.7568C118.084 39.9548 119.533 35.5824 119.533 30.6396C119.533 25.887 117.703 21.5859 114.044 17.7363C103.636 25.7207 93.8454 39.2656 84.6729 58.3711C79.0173 70.11 73.8369 78.6172 69.1318 83.8926C64.5693 88.9779 58.082 93.6117 49.6699 97.7939C39.737 102.642 30.8734 105.065 23.0791 105.065C16.7106 105.065 11.4115 103.616 7.18164 100.717C2.95182 97.7702 0.836914 94.1107 0.836914 89.7383C0.836914 87.3145 1.5498 85.2233 2.97559 83.4648C4.44889 81.7064 6.18359 80.8271 8.17969 80.8271C11.0788 80.8271 12.5283 82.443 12.5283 85.6748C12.5283 87.2907 12.0293 88.6689 11.0312 89.8096C10.0807 90.9502 8.89258 91.5205 7.4668 91.5205C4.99544 91.5205 3.80729 90.2373 3.90234 87.6709C3.94987 86.6253 3.85482 86.1025 3.61719 86.1025C2.85677 86.1025 2.47656 87.362 2.47656 89.8809C2.47656 93.8255 4.40137 97.1048 8.25098 99.7188C12.1481 102.333 17.0433 103.64 22.9365 103.64C33.3447 103.64 42.7786 99.79 51.2383 92.0908C54.8978 88.764 58.082 85.2946 60.791 81.6826C63.5 78.0231 69.7021 68.7793 79.3975 53.9512C84.1025 46.8698 89.7581 39.6696 96.3643 32.3506C102.97 25.0316 108.507 19.8275 112.975 16.7383C105.465 10.4173 94.582 7.25684 80.3242 7.25684C60.2682 7.25684 42.8262 14.5046 27.998 29C15.8314 40.8815 9.74805 52.0739 9.74805 62.5771C9.74805 67.9001 11.459 72.1299 14.8809 75.2666C18.3027 78.4033 22.9365 79.9717 28.7822 79.9717C38.335 79.9717 48.1966 75.3854 58.3672 66.2129C68.5853 57.0404 73.6943 48.1292 73.6943 39.4795C73.6943 32.5882 70.1536 29.1426 63.0723 29.1426C55.9909 29.1426 48.3867 33.0872 40.2598 40.9766C32.1803 48.8184 28.1406 56.2087 28.1406 63.1475C28.1406 64.8584 28.7109 66.3317 29.8516 67.5674C30.9922 68.8031 32.3229 69.4209 33.8438 69.4209C34.6517 69.5635 35.0557 69.7536 35.0557 69.9912C35.0557 70.4189 34.6042 70.6328 33.7012 70.6328C31.4199 70.6328 29.4951 69.611 27.9268 67.5674C26.3584 65.4762 25.5742 62.9336 25.5742 59.9395C25.5742 52.5729 29.6377 45.3965 37.7646 38.4102C45.8916 31.3763 54.2324 27.8594 62.7871 27.8594C70.9616 27.8594 75.0488 31.6377 75.0488 39.1943C75.0488 48.4144 69.8447 57.7295 59.4365 67.1396C49.0283 76.5498 38.7627 81.2549 28.6396 81.2549C22.0335 81.2549 16.7344 79.2826 12.7422 75.3379C8.79753 71.3457 6.8252 66.0228 6.8252 59.3691C6.8252 45.9193 14.4056 33.6576 29.5664 22.584C44.7747 11.4629 61.5752 5.90234 79.9678 5.90234C93.7979 5.90234 105.537 9.0153 115.185 15.2412C123.882 9.82324 132.294 7.11426 140.421 7.11426C146.789 7.11426 151.898 9.0153 155.748 12.8174C159.645 16.6195 161.594 21.6335 161.594 27.8594ZM183.337 79.6865C183.337 80.6846 179.868 85.2946 172.929 93.5166C167.321 100.265 162.901 103.64 159.669 103.64C157.483 103.64 155.701 102.832 154.322 101.216C152.944 99.5524 152.255 97.485 152.255 95.0137C152.255 92.4473 153.015 89.667 154.536 86.6729C149.784 93.3265 146.148 97.8177 143.629 100.146C141.11 102.475 138.662 103.64 136.286 103.64C133.767 103.64 131.652 102.57 129.941 100.432C128.23 98.2454 127.375 95.5127 127.375 92.2334C127.375 83.1084 133.815 75.029 146.694 67.9951C152.35 64.8584 156.912 63.29 160.382 63.29C163.328 63.29 164.802 64.7158 164.802 67.5674C164.802 68.3753 164.612 69.4447 164.231 70.7754L167.867 63.8604C169.293 64.193 170.552 64.3594 171.646 64.3594C172.929 64.3594 174.592 64.193 176.636 63.8604L164.018 84.748C159.645 92.0671 157.459 96.891 157.459 99.2197C157.459 101.453 158.386 102.57 160.239 102.57C162.14 102.57 165.182 100.408 169.364 96.083C173.547 91.7106 177.8 86.3402 182.125 79.9717C182.41 79.4964 182.672 79.2588 182.909 79.2588C183.194 79.2588 183.337 79.4014 183.337 79.6865ZM163.732 67.8525C163.732 65.5238 162.663 64.3594 160.524 64.3594C156.152 64.3594 150.401 68.6367 143.272 77.1914C136.191 85.7461 132.65 92.6611 132.65 97.9365C132.65 101.026 134.029 102.57 136.785 102.57C140.064 102.57 145.744 97.1286 153.823 86.2451C160.429 77.3102 163.732 71.1794 163.732 67.8525ZM224.186 79.6865C224.186 80.0667 222.76 81.8014 219.908 84.8906C216.296 88.8828 212.898 90.8789 209.714 90.8789C206.102 90.8789 204.296 88.7878 204.296 84.6055C204.296 83.2747 204.581 81.5876 205.151 79.5439C202.157 82.1579 199.71 84.748 197.809 87.3145C195.955 89.8809 192.723 95.1087 188.113 102.998C185.594 102.808 184.121 102.713 183.693 102.713C183.503 102.713 182.054 102.808 179.345 102.998L191.036 84.0352C196.882 74.5299 199.805 68.6367 199.805 66.3555C199.805 65.0247 199.258 64.3594 198.165 64.3594C195.504 64.3594 190.68 69.4684 183.693 79.6865C183.266 80.3519 182.885 80.6846 182.553 80.6846C182.363 80.637 182.268 80.4945 182.268 80.2568C182.315 80.0192 182.41 79.8291 182.553 79.6865L183.836 77.9043C191.155 68.1615 196.121 63.29 198.735 63.29C202.537 63.29 204.438 65.7376 204.438 70.6328C204.438 74.2923 202.49 79.14 198.593 85.1758C201.064 82.3242 203.417 79.9954 205.65 78.1895C207.456 73.9596 209.69 70.4189 212.352 67.5674C215.061 64.7158 217.484 63.29 219.623 63.29C221.096 63.29 221.833 63.9316 221.833 65.2148C221.833 67.4961 218.53 70.7516 211.924 74.9814C210.878 75.6468 209.31 76.6211 207.219 77.9043L206.363 78.6172C205.698 80.8034 205.365 82.6094 205.365 84.0352C205.365 88.0273 206.862 90.0234 209.856 90.0234C213.563 90.0234 217.603 86.958 221.976 80.8271C222.926 79.7816 223.52 79.2588 223.758 79.2588C224.043 79.2588 224.186 79.4014 224.186 79.6865ZM262.468 29.998L230.459 80.542C235.449 73.6982 239.18 69.112 241.651 66.7832C244.123 64.4544 246.475 63.29 248.709 63.29C251.37 63.29 253.533 64.3831 255.196 66.5693C256.907 68.708 257.763 71.417 257.763 74.6963C257.763 81.8727 253.2 88.9303 244.075 95.8691C237.279 101.049 231.243 103.64 225.968 103.64C223.496 103.64 221.477 102.713 219.908 100.859C218.387 98.9583 217.627 96.5107 217.627 93.5166C217.627 89.9521 219.908 84.5104 224.471 77.1914L253.984 29.8555C255.268 30.2357 256.646 30.4258 258.119 30.4258C259.26 30.4258 260.709 30.2832 262.468 29.998ZM252.559 69.1357C252.559 65.9515 251.228 64.3594 248.566 64.3594C245.097 64.3594 239.18 70.0863 230.815 81.54C224.542 90.0947 221.405 95.8454 221.405 98.792C221.405 101.311 222.641 102.57 225.112 102.57C229.39 102.57 235.021 98.3167 242.008 89.8096C249.042 81.2549 252.559 74.3636 252.559 69.1357ZM298.611 79.6865C298.611 79.8291 298.184 80.4469 297.328 81.54L294.263 85.3896C284.425 97.5563 275.989 103.64 268.955 103.64C265.628 103.64 262.824 102.451 260.543 100.075C258.309 97.6514 257.192 94.6335 257.192 91.0215C257.192 82.4668 263.157 74.9339 275.086 68.4229C281.359 65.001 286.468 63.29 290.413 63.29C292.124 63.29 293.574 63.8128 294.762 64.8584C295.997 65.8564 296.615 67.0921 296.615 68.5654C296.615 71.9873 294.382 74.9102 289.914 77.334C285.447 79.7103 277.985 81.944 267.529 84.0352C264.298 88.9303 262.682 93.0176 262.682 96.2969C262.682 100.384 264.892 102.428 269.312 102.428C276.821 102.428 286.017 95.085 296.9 80.3994C297.471 79.639 297.946 79.2588 298.326 79.2588C298.516 79.3063 298.611 79.4489 298.611 79.6865ZM292.623 66.498C292.623 64.9772 291.791 64.2168 290.128 64.2168C287.609 64.2168 284.282 65.9753 280.147 69.4922C276.06 72.9616 272.044 77.4766 268.1 83.0371C274.943 81.2786 280.742 78.8073 285.494 75.623C290.247 72.3913 292.623 69.3496 292.623 66.498ZM339.246 79.6865C339.246 80.0667 337.82 81.8014 334.969 84.8906C331.357 88.8828 327.959 90.8789 324.774 90.8789C321.162 90.8789 319.356 88.7878 319.356 84.6055C319.356 83.2747 319.642 81.5876 320.212 79.5439C317.218 82.1579 314.77 84.748 312.869 87.3145C311.016 89.8809 307.784 95.1087 303.174 102.998C300.655 102.808 299.182 102.713 298.754 102.713C298.564 102.713 297.114 102.808 294.405 102.998L306.097 84.0352C311.942 74.5299 314.865 68.6367 314.865 66.3555C314.865 65.0247 314.319 64.3594 313.226 64.3594C310.564 64.3594 305.74 69.4684 298.754 79.6865C298.326 80.3519 297.946 80.6846 297.613 80.6846C297.423 80.637 297.328 80.4945 297.328 80.2568C297.376 80.0192 297.471 79.8291 297.613 79.6865L298.896 77.9043C306.215 68.1615 311.182 63.29 313.796 63.29C317.598 63.29 319.499 65.7376 319.499 70.6328C319.499 74.2923 317.55 79.14 313.653 85.1758C316.125 82.3242 318.477 79.9954 320.711 78.1895C322.517 73.9596 324.751 70.4189 327.412 67.5674C330.121 64.7158 332.545 63.29 334.684 63.29C336.157 63.29 336.894 63.9316 336.894 65.2148C336.894 67.4961 333.59 70.7516 326.984 74.9814C325.939 75.6468 324.37 76.6211 322.279 77.9043L321.424 78.6172C320.758 80.8034 320.426 82.6094 320.426 84.0352C320.426 88.0273 321.923 90.0234 324.917 90.0234C328.624 90.0234 332.664 86.958 337.036 80.8271C337.987 79.7816 338.581 79.2588 338.818 79.2588C339.104 79.2588 339.246 79.4014 339.246 79.6865ZM537.073 11.4629C537.073 11.7005 536.432 12.152 535.148 12.8174C529.588 15.764 524.693 20.0176 520.463 25.5781C516.233 31.1387 511.409 39.6696 505.991 51.1709C498.102 67.9001 491.044 79.9242 484.818 87.2432C478.64 94.5622 470.988 99.8138 461.863 102.998C466.093 103.616 469.349 103.925 471.63 103.925C478.949 103.925 484.795 102.38 489.167 99.291C493.587 96.1543 499.813 89.168 507.845 78.332C508.368 77.6667 508.771 77.334 509.057 77.334C509.247 77.3815 509.342 77.5241 509.342 77.7617C509.342 78.237 507.108 81.3024 502.641 86.958C497.175 93.8968 492.28 98.6257 487.955 101.145C483.678 103.663 478.402 104.923 472.129 104.923C468.232 104.923 464.026 104.495 459.511 103.64C456.326 104.685 453.071 105.208 449.744 105.208C447.225 105.208 445.966 104.733 445.966 103.782C445.966 102.594 447.724 102 451.241 102C453.19 102 455.756 102.238 458.94 102.713H459.867C464.905 100.907 469.159 98.0553 472.628 94.1582C476.145 90.2135 480.351 83.5837 485.246 74.2686C495.179 55.4007 503.045 42.0459 508.843 34.2041C514.451 26.695 521.176 20.279 529.018 14.9561C532.962 12.3421 535.505 11.0352 536.646 11.0352C536.931 11.0352 537.073 11.1777 537.073 11.4629ZM571.363 30.7822C571.363 32.6357 571.149 34.4417 570.722 36.2002C570.341 37.9111 569.938 38.7666 569.51 38.7666C569.177 38.7666 569.011 38.624 569.011 38.3389C569.058 38.1488 569.106 37.9587 569.153 37.7686C569.866 36.1051 570.223 33.8714 570.223 31.0674C570.223 24.7464 567.704 19.3997 562.666 15.0273C557.628 10.6074 551.474 8.39746 544.202 8.39746C532.463 8.39746 520.439 14.1481 508.13 25.6494C503.282 30.1644 499.1 34.5605 495.583 38.8379C492.209 42.8776 485.603 51.4323 475.765 64.502C461.222 83.75 449.293 95.7741 439.978 100.574C435.795 102.713 433.11 103.782 431.922 103.782C431.637 103.782 431.494 103.616 431.494 103.283C431.542 103.236 432.041 102.855 432.991 102.143C437.649 98.6732 441.356 94.0156 444.112 88.1699C446.679 82.7995 451.289 70.0863 457.942 50.0303C463.598 32.9209 470.062 20.6592 477.333 13.2451C477.618 12.96 477.761 12.7223 477.761 12.5322C477.143 12.3421 475.741 13.3639 473.555 15.5977C466.473 22.6315 458.156 35.2734 448.604 53.5234C442.71 64.7396 437.53 73.2467 433.062 79.0449C428.643 84.7956 423.367 89.8571 417.236 94.2295C407.161 101.453 397.038 105.065 386.867 105.065C380.261 105.065 374.867 103.687 370.685 100.931C366.55 98.1266 364.482 94.5384 364.482 90.166C364.482 87.6947 365.195 85.6273 366.621 83.9639C368.047 82.2529 369.829 81.3975 371.968 81.3975C375.057 81.3975 376.602 82.9183 376.602 85.96C376.602 87.5283 376.103 88.8828 375.104 90.0234C374.106 91.1165 372.895 91.6631 371.469 91.6631C369.14 91.6631 367.976 90.3799 367.976 87.8135C367.976 86.863 367.785 86.3877 367.405 86.3877C366.645 86.3877 366.265 87.6947 366.265 90.3086C366.265 94.2057 368.189 97.4137 372.039 99.9326C375.936 102.404 380.926 103.64 387.01 103.64C399.414 103.64 411.581 97.1999 423.51 84.3203C428.31 79.14 432.373 74.1022 435.7 69.207C439.027 64.2643 445.657 53.5472 455.59 37.0557C459.772 30.0693 464.477 23.7246 469.705 18.0215C474.98 12.3184 478.735 9.4668 480.969 9.4668C481.301 9.4668 481.468 9.60938 481.468 9.89453C481.42 10.0846 481.325 10.2747 481.183 10.4648C476.763 15.3125 472.771 24.4613 469.206 37.9111C463.883 57.6344 458.869 71.9873 454.164 80.9697C449.507 89.7145 443.518 96.3444 436.199 100.859C436.009 100.907 435.914 101.002 435.914 101.145C435.962 101.192 436.057 101.24 436.199 101.287C437.292 101.287 439.954 99.7663 444.184 96.7246C449.316 93.1126 454.045 88.7878 458.37 83.75C462.695 78.7122 470.537 68.3991 481.896 52.8105C489.927 41.7845 496.296 33.7288 501.001 28.6436C505.754 23.5107 511.005 18.9958 516.756 15.0986C525.738 9.06283 534.792 6.04492 543.917 6.04492C551.901 6.04492 558.46 8.3737 563.593 13.0312C568.773 17.6888 571.363 23.6058 571.363 30.7822ZM458.37 26.79C458.37 27.8356 457.016 29.8792 454.307 32.9209C450.219 37.5309 446.275 39.8359 442.473 39.8359C439.859 39.8359 437.649 38.8854 435.843 36.9844C434.037 35.0358 433.134 32.6595 433.134 29.8555C433.134 27.1465 434.108 23.891 436.057 20.0889C438.48 15.3363 439.692 11.9857 439.692 10.0371C439.692 7.61328 438.552 5.66471 436.271 4.19141C433.989 2.7181 430.995 1.98145 427.288 1.98145C416.69 1.98145 406.733 6.25879 397.418 14.8135C388.103 23.3682 383.445 32.4694 383.445 42.1172C383.445 47.1074 384.966 51.1947 388.008 54.3789C391.097 57.5156 395.042 59.084 399.842 59.084C404.119 59.084 408.444 57.8721 412.816 55.4482C417.236 52.9769 420.801 49.8164 423.51 45.9668C423.7 45.7292 423.842 45.6104 423.938 45.6104C424.318 45.6104 424.508 45.8242 424.508 46.252C424.508 47.2025 422.987 49.0322 419.945 51.7412C413.672 57.3968 406.876 60.2246 399.557 60.2246C394.424 60.2246 390.242 58.5612 387.01 55.2344C383.778 51.9076 382.162 47.5827 382.162 42.2598C382.162 31.9466 386.915 22.4652 396.42 13.8154C405.973 5.16569 416.405 0.84082 427.716 0.84082C432.373 0.84082 436.009 2.00521 438.623 4.33398C441.285 6.66276 442.615 9.87077 442.615 13.958C442.615 16.9997 441.094 21.6335 438.053 27.8594C437.007 30.0456 436.484 31.7803 436.484 33.0635C436.484 36.6755 438.433 38.4814 442.33 38.4814C444.659 38.4814 447.249 37.3646 450.101 35.1309C453 32.8971 455.328 30.1644 457.087 26.9326C457.325 26.4574 457.562 26.2197 457.8 26.2197C458.18 26.2197 458.37 26.4098 458.37 26.79ZM558.032 79.6865C558.032 80.6846 554.563 85.2946 547.624 93.5166C542.016 100.265 537.596 103.64 534.364 103.64C532.178 103.64 530.396 102.832 529.018 101.216C527.639 99.5524 526.95 97.485 526.95 95.0137C526.95 92.4473 527.711 89.667 529.231 86.6729C524.479 93.3265 520.843 97.8177 518.324 100.146C515.805 102.475 513.358 103.64 510.981 103.64C508.463 103.64 506.348 102.57 504.637 100.432C502.926 98.2454 502.07 95.5127 502.07 92.2334C502.07 83.1084 508.51 75.029 521.39 67.9951C527.045 64.8584 531.608 63.29 535.077 63.29C538.024 63.29 539.497 64.7158 539.497 67.5674C539.497 68.3753 539.307 69.4447 538.927 70.7754L542.562 63.8604C543.988 64.193 545.248 64.3594 546.341 64.3594C547.624 64.3594 549.287 64.193 551.331 63.8604L538.713 84.748C534.34 92.0671 532.154 96.891 532.154 99.2197C532.154 101.453 533.081 102.57 534.935 102.57C536.836 102.57 539.877 100.408 544.06 96.083C548.242 91.7106 552.495 86.3402 556.82 79.9717C557.105 79.4964 557.367 79.2588 557.604 79.2588C557.89 79.2588 558.032 79.4014 558.032 79.6865ZM538.428 67.8525C538.428 65.5238 537.358 64.3594 535.22 64.3594C530.847 64.3594 525.097 68.6367 517.968 77.1914C510.886 85.7461 507.346 92.6611 507.346 97.9365C507.346 101.026 508.724 102.57 511.48 102.57C514.76 102.57 520.439 97.1286 528.519 86.2451C535.125 77.3102 538.428 71.1794 538.428 67.8525ZM607.008 79.6865C607.008 80.4469 604.441 83.7025 599.309 89.4531C593.558 95.8216 586.12 101.501 576.995 106.491L573.431 112.979C566.967 124.908 559.719 134.104 551.688 140.567C543.988 146.793 537.335 149.906 531.727 149.906C529.683 149.906 527.996 149.288 526.665 148.053C525.334 146.817 524.669 145.296 524.669 143.49C524.669 133.747 535.671 123.862 557.676 113.834C562.428 111.648 565.494 110.174 566.872 109.414L578.991 87.1006C573.716 94.0869 569.985 98.6019 567.799 100.646C565.66 102.642 563.45 103.64 561.169 103.64C558.698 103.64 556.583 102.547 554.824 100.36C553.113 98.1742 552.258 95.5127 552.258 92.376C552.258 84.154 557.628 76.6924 568.369 69.9912C575.546 65.5238 581.177 63.29 585.265 63.29C588.116 63.29 589.542 64.8584 589.542 67.9951C589.542 68.8506 589.328 69.8724 588.9 71.0605L592.893 63.8604C594.176 64.193 595.293 64.3594 596.243 64.3594C597.479 64.3594 599.285 64.193 601.661 63.8604C601.328 64.2881 599.237 67.8525 595.388 74.5537L577.708 105.065C583.934 101.549 588.9 98.1504 592.607 94.8711C596.362 91.5918 600.592 86.863 605.297 80.6846C606.01 79.734 606.485 79.2588 606.723 79.2588C606.913 79.3063 607.008 79.4489 607.008 79.6865ZM588.758 67.9951C588.758 65.5713 587.593 64.3594 585.265 64.3594C580.987 64.3594 575.308 68.6367 568.227 77.1914C561.193 85.6986 557.676 92.5661 557.676 97.7939C557.676 100.978 559.054 102.57 561.811 102.57C564.615 102.57 569.367 98.3405 576.068 89.8809C584.528 79.1875 588.758 71.8923 588.758 67.9951ZM566.159 110.626C565.256 111.149 562.571 112.503 558.104 114.689C536.432 125.43 525.596 135.078 525.596 143.633C525.596 145.106 526.142 146.342 527.235 147.34C528.328 148.338 529.73 148.837 531.441 148.837C536.669 148.837 541.755 146.152 546.697 140.781C551.64 135.458 557.842 125.882 565.304 112.052C565.304 112.052 565.589 111.576 566.159 110.626ZM630.533 50.1729C630.533 51.8363 629.82 53.4046 628.395 54.8779C627.016 56.3037 625.495 57.0166 623.832 57.0166C621.693 57.0166 620.624 55.9473 620.624 53.8086C620.624 52.2402 621.361 50.7432 622.834 49.3174C624.307 47.8441 625.852 47.1074 627.468 47.1074C629.511 47.1074 630.533 48.1292 630.533 50.1729ZM631.531 79.6865C631.484 79.8291 631.246 80.2093 630.818 80.8271L627.753 85.0332C618.818 97.4375 611.998 103.64 607.293 103.64C605.059 103.64 603.182 102.855 601.661 101.287C600.188 99.6712 599.451 97.6751 599.451 95.2988C599.451 92.5423 601.091 88.36 604.37 82.752L615.491 63.8604C616.965 64.193 618.129 64.3594 618.984 64.3594C620.268 64.3594 622.074 64.193 624.402 63.8604L608.22 90.4512C605.891 94.3008 604.727 97.2712 604.727 99.3623C604.727 101.501 605.843 102.57 608.077 102.57C612.307 102.57 619.745 95.0374 630.391 79.9717C630.628 79.4964 630.866 79.2588 631.104 79.2588C631.389 79.2588 631.531 79.4014 631.531 79.6865ZM667.033 79.6865C667.033 80.3044 663.683 84.2965 656.981 91.6631C649.662 99.6475 643.437 103.64 638.304 103.64C634.977 103.64 632.125 102.38 629.749 99.8613C627.373 97.2949 626.185 94.2533 626.185 90.7363C626.185 86.7441 627.8 82.6094 631.032 78.332C634.264 74.0547 638.613 70.3714 644.078 67.2822C648.688 64.6208 652.443 63.29 655.342 63.29C658.859 63.29 660.617 65.3812 660.617 69.5635C660.617 72.8428 659.5 76.1221 657.267 79.4014C655.08 82.6807 652.894 84.3203 650.708 84.3203C648.569 84.3203 647.5 83.251 647.5 81.1123C647.5 78.5934 649.686 76.2646 654.059 74.126C657.433 72.4626 659.12 70.2764 659.12 67.5674C659.12 65.4287 657.956 64.3594 655.627 64.3594C651.682 64.3594 646.835 68.2803 641.084 76.1221C635.333 83.9639 632.458 90.5462 632.458 95.8691C632.458 100.337 634.549 102.57 638.731 102.57C645.29 102.57 654.177 95.18 665.394 80.3994C666.011 79.639 666.463 79.2588 666.748 79.2588C666.938 79.3063 667.033 79.4489 667.033 79.6865Z" fill="#E3B454"/>
</svg>
