<svg width="460" height="277" viewBox="0 0 460 277" fill="none" xmlns="http://www.w3.org/2000/svg">
<path fill-rule="evenodd" clip-rule="evenodd" d="M236.162 15.0813C240.04 14.7036 243.062 11.6532 243.062 7.94615C243.062 3.98383 239.609 0.771729 235.35 0.771729C231.091 0.771729 227.638 3.98383 227.638 7.94615C227.638 11.4451 230.33 14.3591 233.893 14.9928L225.71 96.7297L201.213 26.3954C204.248 25.4308 206.43 22.7548 206.43 19.6046C206.43 15.6423 202.977 12.4302 198.718 12.4302C194.459 12.4302 191.006 15.6423 191.006 19.6046C191.006 23.5669 194.459 26.779 198.718 26.779C198.825 26.779 198.931 26.777 199.037 26.773L208.358 101.662L173.274 46.0982C175.253 44.7996 176.546 42.6558 176.546 40.2311C176.546 36.2687 173.094 33.0566 168.834 33.0566C164.575 33.0566 161.123 36.2687 161.123 40.2311C161.123 44.1934 164.575 47.4055 168.834 47.4055C169.664 47.4055 170.464 47.2835 171.213 47.0578L199.682 128.118C203.056 136.189 217.034 140.473 236.314 140.473C258.004 140.473 269.572 134.395 272.464 128.118L295.747 47.0918C296.462 47.2957 297.222 47.4055 298.009 47.4055C302.269 47.4055 305.721 44.1934 305.721 40.2311C305.721 36.2687 302.269 33.0566 298.009 33.0566C293.75 33.0566 290.298 36.2687 290.298 40.2311C290.298 42.8021 291.751 45.0573 293.936 46.324L265.234 101.662L269.757 26.6836C270.167 26.7464 270.588 26.779 271.018 26.779C275.277 26.779 278.73 23.5669 278.73 19.6046C278.73 15.6423 275.277 12.4302 271.018 12.4302C266.758 12.4302 263.306 15.6423 263.306 19.6046C263.306 22.2418 264.835 24.5467 267.114 25.7934L246.918 96.7297L236.162 15.0813ZM235.451 110.895C235.806 110.233 236.822 110.233 237.177 110.895L240.466 117.032C240.673 117.419 241.147 117.613 241.593 117.495L252.787 114.515C253.827 114.238 254.493 115.519 253.614 116.106L249.267 119.008C248.546 119.489 248.848 120.545 249.731 120.629L257.792 121.396C258.947 121.506 258.947 123.071 257.792 123.181L249.731 123.948C248.848 124.032 248.546 125.088 249.267 125.569L253.614 128.471C254.493 129.058 253.827 130.339 252.787 130.062L241.593 127.082C241.147 126.964 240.673 127.158 240.466 127.545L237.177 133.682C236.822 134.344 235.806 134.344 235.451 133.682L232.162 127.545C231.955 127.158 231.481 126.964 231.034 127.082L219.841 130.062C218.801 130.339 218.135 129.058 219.014 128.471L223.361 125.569C224.082 125.088 223.78 124.032 222.897 123.948L214.835 123.181C213.681 123.071 213.681 121.506 214.835 121.396L222.897 120.629C223.78 120.545 224.082 119.489 223.361 119.008L219.014 116.106C218.135 115.519 218.801 114.238 219.841 114.515L231.034 117.495C231.481 117.613 231.955 117.419 232.162 117.032L235.451 110.895Z" fill="url(#paint0_linear_669_38872)"/>
<path d="M6.60082 256.228V195.491H25.5476C33.5907 195.491 39.5884 196.665 43.5408 199.015C47.4933 201.364 49.4695 205.275 49.4695 210.748C49.4695 211.632 49.4142 212.503 49.3036 213.36C49.1931 214.216 48.9443 215.198 48.5574 216.303C48.1704 217.381 47.6591 218.362 47.0234 219.247C46.3877 220.131 45.5032 221.002 44.37 221.859C43.2368 222.688 41.9101 223.337 40.3899 223.807C44.1489 224.719 47.0234 226.475 49.0134 229.073C51.0035 231.643 51.9985 234.822 51.9985 238.608C51.9985 244.33 49.967 248.697 45.904 251.709C41.8686 254.722 36.2717 256.228 29.1131 256.228H6.60082ZM17.8362 248.102H27.5791C36.2026 248.102 40.5143 244.73 40.5143 237.986C40.5143 234.587 39.4364 232.141 37.2805 230.648C35.1246 229.156 31.7941 228.409 27.2889 228.409H17.8362V248.102ZM17.8362 220.573H27.4547C34.8897 220.573 38.6072 217.74 38.6072 212.074C38.6072 208.896 37.5293 206.712 35.3734 205.524C33.2452 204.335 29.8455 203.741 25.1745 203.741H17.8362V220.573ZM72.8938 257.099C68.665 257.099 65.2377 255.938 62.612 253.616C60.0139 251.267 58.7148 247.895 58.7148 243.5C58.7148 238.774 60.2626 235.278 63.3582 233.011C66.4539 230.717 71.1249 229.266 77.3714 228.658C78.2282 228.547 79.1541 228.437 80.1492 228.326C81.1442 228.216 82.2636 228.105 83.5073 227.995C84.7511 227.884 85.7323 227.787 86.4509 227.704V225.3C86.4509 222.536 85.8152 220.532 84.5438 219.288C83.2724 218.017 81.3376 217.381 78.7395 217.381C75.0359 217.381 70.4616 218.418 65.0166 220.491C64.989 220.408 64.5329 219.15 63.6485 216.718C62.764 214.286 62.308 213.042 62.2803 212.986C67.6423 210.692 73.4466 209.545 79.6931 209.545C85.829 209.545 90.2928 210.886 93.0844 213.567C95.876 216.22 97.2717 220.532 97.2717 226.502V256.228H89.2287C89.201 256.118 88.897 255.192 88.3166 253.451C87.7362 251.709 87.4459 250.783 87.4459 250.673C85.1795 252.884 82.9546 254.515 80.771 255.565C78.6152 256.588 75.9894 257.099 72.8938 257.099ZM75.8374 249.388C78.3526 249.388 80.5361 248.793 82.3879 247.605C84.2674 246.389 85.6079 244.924 86.4095 243.21V234.421C86.3266 234.421 85.5941 234.476 84.2121 234.587C82.8578 234.697 82.1254 234.752 82.0148 234.752C77.6202 235.139 74.4002 235.969 72.3549 237.24C70.3095 238.511 69.2869 240.557 69.2869 243.376C69.2869 245.311 69.8535 246.803 70.9867 247.854C72.1199 248.876 73.7368 249.388 75.8374 249.388ZM108.258 256.228V210.665H117.379L118.789 217.63C121.774 212.848 126.1 210.457 131.766 210.457C132.954 210.457 133.922 210.513 134.668 210.623L134.502 219.703C133.396 219.537 132.249 219.454 131.061 219.454C127.053 219.454 124.054 220.518 122.064 222.646C120.102 224.775 119.121 227.732 119.121 231.519V256.228H108.258ZM165.721 257.099C162.625 257.099 159.806 256.422 157.263 255.067C154.748 253.685 152.924 252.124 151.79 250.383L150.712 256.187H141.301V193.874L152.164 193.169V207.265C152.164 210.001 152.081 213.111 151.915 216.593C155.508 211.895 160.193 209.545 165.969 209.545C171.774 209.545 176.32 211.701 179.609 216.013C182.926 220.325 184.584 225.963 184.584 232.928C184.584 240.17 182.871 246.016 179.444 250.465C176.044 254.888 171.47 257.099 165.721 257.099ZM163.109 248.849C166.342 248.849 168.927 247.48 170.862 244.744C172.796 242.008 173.764 238.124 173.764 233.094C173.764 228.036 172.81 224.208 170.903 221.61C169.024 219.012 166.467 217.713 163.233 217.713C155.881 217.713 152.164 222.674 152.081 232.597C152.081 238.18 153.007 242.284 154.858 244.91C156.71 247.536 159.46 248.849 163.109 248.849ZM214.518 257.099C207.193 257.099 201.486 254.998 197.395 250.797C193.332 246.568 191.301 240.736 191.301 233.301C191.301 226.06 193.222 220.297 197.064 216.013C200.906 211.729 206.143 209.573 212.777 209.545C219.051 209.545 223.915 211.508 227.37 215.433C230.853 219.357 232.594 224.567 232.594 231.063C232.594 231.533 232.58 232.293 232.553 233.343C232.553 234.393 232.553 235.167 232.553 235.665H202.246C202.357 239.921 203.517 243.224 205.729 245.573C207.967 247.895 211.035 249.056 214.932 249.056C219.908 249.056 224.689 247.757 229.277 245.159L230.811 252.87C226.251 255.689 220.82 257.099 214.518 257.099ZM202.453 228.824H222.354C222.354 225.12 221.511 222.273 219.825 220.283C218.139 218.293 215.803 217.298 212.818 217.298C210.027 217.298 207.663 218.266 205.729 220.2C203.821 222.135 202.73 225.01 202.453 228.824ZM241.508 256.228V210.665H250.629L252.038 217.63C255.023 212.848 259.349 210.457 265.015 210.457C266.204 210.457 267.171 210.513 267.917 210.623L267.751 219.703C266.646 219.537 265.499 219.454 264.31 219.454C260.303 219.454 257.304 220.518 255.314 222.646C253.351 224.775 252.37 227.732 252.37 231.519V256.228H241.508Z" fill="white"/>
<path d="M277.917 189.679C277.917 182.351 283.856 176.412 291.183 176.412H445.856C453.183 176.412 459.123 182.351 459.123 189.679V256.631C459.123 263.958 453.183 269.898 445.856 269.898H291.183C283.856 269.898 277.917 263.958 277.917 256.631V189.679Z" fill="url(#paint1_linear_669_38872)"/>
<path d="M297.259 256.228V193.874L308.121 193.169V206.312C308.121 206.947 308.079 208.716 307.997 211.618C307.914 214.493 307.872 215.958 307.872 216.013C311.493 211.701 316.357 209.545 322.466 209.545C327.551 209.545 331.49 211.01 334.282 213.94C337.101 216.842 338.51 221.32 338.51 227.373V256.228H327.648V228.575C327.648 224.844 327.054 222.107 325.865 220.366C324.677 218.625 322.659 217.754 319.812 217.754C317.38 217.754 315.224 218.376 313.345 219.62C311.465 220.836 310.056 222.412 309.116 224.346C308.453 226.889 308.121 230.206 308.121 234.296V256.228H297.259ZM382.125 252.663C378.505 255.62 373.737 257.099 367.822 257.099C361.907 257.099 357.139 255.62 353.519 252.663C349.925 249.705 348.129 245.366 348.129 239.645V210.665H359.033V239.23C359.033 242.63 359.737 245.09 361.147 246.61C362.584 248.13 364.851 248.89 367.946 248.89C370.987 248.89 373.198 248.144 374.58 246.651C375.989 245.131 376.694 242.657 376.694 239.23V210.665H387.556V239.645C387.556 245.338 385.746 249.678 382.125 252.663ZM421.926 257.099C418.83 257.099 416.011 256.422 413.468 255.067C410.953 253.685 409.129 252.124 407.996 250.383L406.918 256.187H397.507V193.874L408.369 193.169V207.265C408.369 210.001 408.286 213.111 408.12 216.593C411.713 211.895 416.398 209.545 422.175 209.545C427.979 209.545 432.526 211.701 435.815 216.013C439.132 220.325 440.79 225.963 440.79 232.928C440.79 240.17 439.076 246.016 435.649 250.465C432.249 254.888 427.675 257.099 421.926 257.099ZM419.314 248.849C422.548 248.849 425.132 247.48 427.067 244.744C429.002 242.008 429.969 238.124 429.969 233.094C429.969 228.036 429.016 224.208 427.108 221.61C425.229 219.012 422.672 217.713 419.438 217.713C412.086 217.713 408.369 222.674 408.286 232.597C408.286 238.18 409.212 242.284 411.064 244.91C412.916 247.536 415.666 248.849 419.314 248.849Z" fill="#131112"/>
<defs>
<linearGradient id="paint0_linear_669_38872" x1="233.422" y1="18.1172" x2="233.422" y2="93.5932" gradientUnits="userSpaceOnUse">
<stop stop-color="#E2B64A"/>
<stop offset="0.473958" stop-color="#FFE684"/>
<stop offset="1" stop-color="#CF9E4B"/>
</linearGradient>
<linearGradient id="paint1_linear_669_38872" x1="368.52" y1="188.019" x2="368.52" y2="238.527" gradientUnits="userSpaceOnUse">
<stop stop-color="#E2B64A"/>
<stop offset="0.473958" stop-color="#FFE684"/>
<stop offset="1" stop-color="#CF9E4B"/>
</linearGradient>
</defs>
</svg>
