<svg width="88" height="84" viewBox="0 0 88 84" fill="none" xmlns="http://www.w3.org/2000/svg">
<path fill-rule="evenodd" clip-rule="evenodd" d="M45.6924 8.58726C48.0192 8.36066 49.8329 6.53009 49.8329 4.30543C49.8329 1.92761 47.7608 0 45.2049 0C42.6489 0 40.5769 1.92761 40.5769 4.30543C40.5769 6.40521 42.1927 8.1539 44.3306 8.53415L39.4199 57.5851L24.7188 15.377C26.5402 14.7981 27.8499 13.1922 27.8499 11.3018C27.8499 8.92393 25.7779 6.99633 23.2219 6.99633C20.6659 6.99633 18.5939 8.92393 18.5939 11.3018C18.5939 13.6796 20.6659 15.6072 23.2219 15.6072C23.286 15.6072 23.3498 15.606 23.4133 15.6036L29.0069 60.5451L7.95255 27.2008C9.14047 26.4215 9.9164 25.135 9.9164 23.6799C9.9164 21.302 7.84437 19.3744 5.2884 19.3744C2.73243 19.3744 0.6604 21.302 0.6604 23.6799C0.6604 26.0577 2.73243 27.9853 5.2884 27.9853C5.78648 27.9853 6.26619 27.9121 6.71577 27.7766L23.8004 76.4214C25.8251 81.265 34.2134 83.8357 45.7834 83.8357C58.7996 83.8357 65.7416 80.1887 67.4771 76.4214L81.4496 27.797C81.8789 27.9194 82.3349 27.9853 82.8074 27.9853C85.3633 27.9853 87.4353 26.0577 87.4353 23.6799C87.4353 21.302 85.3633 19.3744 82.8074 19.3744C80.2514 19.3744 78.1794 21.302 78.1794 23.6799C78.1794 25.2228 79.0518 26.5761 80.3627 27.3363L63.1384 60.5451L65.8528 15.5499C66.099 15.5876 66.3517 15.6072 66.6094 15.6072C69.1653 15.6072 71.2374 13.6796 71.2374 11.3018C71.2374 8.92393 69.1653 6.99633 66.6094 6.99633C64.0534 6.99633 61.9814 8.92393 61.9814 11.3018C61.9814 12.8844 62.8992 14.2675 64.2668 15.0157L52.1469 57.5851L45.6924 8.58726ZM45.2656 66.0858C45.4786 65.6884 46.0881 65.6884 46.3011 66.0858L48.2748 69.769C48.3991 70.0011 48.6837 70.1177 48.9516 70.0463L55.6691 68.2582C56.293 68.0921 56.6928 68.8609 56.1655 69.2129L53.5565 70.9546C53.1238 71.2434 53.305 71.8767 53.8348 71.9272L58.6728 72.3879C59.3656 72.4538 59.3656 73.3926 58.6728 73.4586L53.8348 73.9193C53.305 73.9697 53.1238 74.6031 53.5565 74.8919L56.1655 76.6336C56.6928 76.9856 56.293 77.7543 55.6691 77.5883L48.9516 75.8001C48.6837 75.7288 48.3991 75.8454 48.2748 76.0774L46.3011 79.7606C46.0881 80.1581 45.4786 80.1581 45.2656 79.7606L43.292 76.0774C43.1676 75.8454 42.8831 75.7288 42.6151 75.8001L35.8977 77.5883C35.2737 77.7544 34.874 76.9856 35.4012 76.6336L38.0103 74.8919C38.443 74.6031 38.2617 73.9697 37.7319 73.9193L32.894 73.4586C32.2012 73.3926 32.2012 72.4538 32.894 72.3879L37.7319 71.9272C38.2617 71.8767 38.443 71.2434 38.0103 70.9546L35.4012 69.2129C34.874 68.8609 35.2737 68.0921 35.8977 68.2582L42.6151 70.0463C42.8831 70.1177 43.1676 70.0011 43.292 69.769L45.2656 66.0858Z" fill="url(#paint0_linear_770_12071)"/>
<defs>
<linearGradient id="paint0_linear_770_12071" x1="44.0479" y1="10.4091" x2="44.0479" y2="55.7029" gradientUnits="userSpaceOnUse">
<stop stop-color="#E2B64A"/>
<stop offset="0.473958" stop-color="#FFE684"/>
<stop offset="1" stop-color="#CF9E4B"/>
</linearGradient>
</defs>
</svg>
