<svg width="192" height="154" viewBox="0 0 192 154" fill="none" xmlns="http://www.w3.org/2000/svg">
<g opacity="0.2">
<path fill-rule="evenodd" clip-rule="evenodd" d="M57.5674 86.4168C59.0909 87.0287 60.9121 86.5165 61.7645 85.186C62.6758 83.764 62.135 81.9456 60.5569 81.1246C58.9787 80.3036 56.9608 80.7908 56.0497 82.2129C55.245 83.4687 55.5726 85.0335 56.747 85.9476L34.9195 113.705L42.0159 83.7403C43.3624 83.9792 44.7863 83.4394 45.5107 82.3089C46.4218 80.8869 45.8811 79.0685 44.303 78.2475C42.7249 77.4265 40.7069 77.9136 39.7958 79.3357C38.8846 80.7578 39.4254 82.5761 41.0035 83.3972C41.0431 83.4177 41.083 83.4375 41.123 83.4564L27.3559 112.13L27.1333 85.4259C28.1653 85.3414 29.1374 84.8213 29.6949 83.951C30.6061 82.529 30.0654 80.7107 28.4873 79.8896C26.9091 79.0686 24.8912 79.5558 23.98 80.9779C23.0688 82.3999 23.6096 84.2183 25.1877 85.0393C25.4953 85.1993 25.8195 85.3096 26.149 85.373L18.0578 119.953C17.4519 123.5 21.6461 127.731 28.7897 131.448C36.8264 135.629 42.5101 135.678 45.0252 133.982L72.2844 109.391C72.5021 109.602 72.7591 109.788 73.0506 109.94C74.6284 110.761 76.6464 110.273 77.5575 108.851C78.4685 107.429 77.9278 105.611 76.35 104.79C74.7722 103.969 72.7542 104.456 71.8422 105.878C71.2512 106.801 71.2719 107.891 71.79 108.766L48.4298 123.094L67.3471 97.0567C67.4847 97.1583 67.6332 97.2512 67.7922 97.3339C69.3704 98.1549 71.3882 97.6676 72.2992 96.2456C73.2102 94.8236 72.6695 93.0052 71.0917 92.1842C69.5137 91.3632 67.4957 91.8504 66.5846 93.2725C65.9782 94.219 66.0148 95.341 66.5726 96.2276L42.7776 117.793L57.5674 86.4168ZM35.2715 120.666C35.5553 120.497 35.9316 120.693 35.9108 120.999L35.7181 123.836C35.706 124.014 35.837 124.176 36.0298 124.219L40.8625 125.307C41.3113 125.408 41.2637 125.997 40.8032 126.038L38.5249 126.241C38.1471 126.275 38.0163 126.712 38.3241 126.912L41.1347 128.742C41.5372 129.004 41.1774 129.565 40.7244 129.382L37.5607 128.104C37.2143 127.964 36.8597 128.284 37.0162 128.596L37.9597 130.476C38.1504 130.856 37.609 131.187 37.2874 130.887L33.825 127.66C33.6869 127.531 33.4666 127.51 33.3008 127.608L30.6709 129.177C30.3871 129.346 30.0108 129.151 30.0316 128.845L30.2243 126.008C30.2364 125.829 30.1054 125.668 29.9127 125.625L25.0799 124.536C24.6311 124.435 24.6788 123.847 25.1393 123.806L27.4175 123.602C27.7953 123.569 27.9261 123.132 27.6183 122.931L24.8077 121.102C24.4052 120.84 24.765 120.278 25.218 120.461L28.3817 121.74C28.7281 121.88 29.0827 121.559 28.9262 121.248L27.9827 119.368C27.792 118.988 28.3334 118.657 28.655 118.957L32.1174 122.184C32.2555 122.312 32.4759 122.334 32.6416 122.235L35.2715 120.666Z" fill="url(#paint0_linear_910_12819)"/>
</g>
<g opacity="0.2">
<path fill-rule="evenodd" clip-rule="evenodd" d="M153.567 8.56813C155.091 9.18009 156.912 8.66787 157.765 7.33737C158.676 5.91534 158.135 4.09698 156.557 3.27596C154.979 2.45493 152.961 2.94221 152.05 4.36424C151.245 5.62003 151.573 7.18482 152.747 8.09894L130.919 35.8563L138.016 5.89168C139.362 6.13058 140.786 5.59079 141.511 4.46026C142.422 3.03823 141.881 1.21987 140.303 0.398844C138.725 -0.422182 136.707 0.0649974 135.796 1.48703C134.885 2.90915 135.425 4.72752 137.003 5.54854C137.043 5.56908 137.083 5.58883 137.123 5.6078L123.356 34.2817L123.133 7.57725C124.165 7.49276 125.137 6.97263 125.695 6.10241C126.606 4.68038 126.065 2.86202 124.487 2.04099C122.909 1.21997 120.891 1.70715 119.98 3.12927C119.069 4.5513 119.61 6.36967 121.188 7.19069C121.495 7.35067 121.82 7.46098 122.149 7.52434L114.058 42.1039C113.452 45.6511 117.646 49.8829 124.79 53.5994C132.826 57.7804 138.51 57.8292 141.025 56.1337L168.284 31.5423C168.502 31.7534 168.759 31.9392 169.051 32.091C170.628 32.912 172.646 32.4247 173.557 31.0027C174.468 29.5807 173.928 27.7623 172.35 26.9413C170.772 26.1202 168.754 26.6075 167.842 28.0296C167.251 28.9523 167.272 30.0419 167.79 30.9176L144.43 45.2453L163.347 19.208C163.485 19.3096 163.633 19.4025 163.792 19.4853C165.37 20.3063 167.388 19.819 168.299 18.397C169.21 16.9749 168.669 15.1566 167.092 14.3356C165.514 13.5145 163.496 14.0018 162.585 15.4238C161.978 16.3703 162.015 17.4923 162.573 18.379L138.778 39.9444L153.567 8.56813ZM131.272 42.8178C131.555 42.6485 131.932 42.8444 131.911 43.1505L131.718 45.9871C131.706 46.1658 131.837 46.327 132.03 46.3704L136.863 47.4588C137.311 47.5598 137.264 48.148 136.803 48.1892L134.525 48.3927C134.147 48.4264 134.016 48.8634 134.324 49.0638L137.135 50.8933C137.537 51.1553 137.177 51.7168 136.724 51.5337L133.561 50.2551C133.214 50.1151 132.86 50.4357 133.016 50.7474L133.96 52.6271C134.15 53.007 133.609 53.3383 133.287 53.0386L129.825 49.8114C129.687 49.6827 129.467 49.661 129.301 49.7598L126.671 51.3286C126.387 51.4978 126.011 51.3021 126.032 50.996L126.224 48.1593C126.236 47.9806 126.105 47.8194 125.913 47.776L121.08 46.6876C120.631 46.5865 120.679 45.9984 121.139 45.9573L123.417 45.7538C123.795 45.7199 123.926 45.283 123.618 45.0827L120.808 43.2531C120.405 42.9911 120.765 42.4297 121.218 42.6127L124.382 43.8913C124.728 44.0312 125.083 43.7107 124.926 43.399L123.983 41.5194C123.792 41.1395 124.333 40.8082 124.655 41.1079L128.117 44.335C128.256 44.4638 128.476 44.4855 128.642 44.3866L131.272 42.8178Z" fill="url(#paint1_linear_910_12819)"/>
<path opacity="0.3" d="M138.956 89.3007L132.094 84.7232L132.478 77.0283L125.43 81.4757L117.367 78.8442L119.87 86.1744L114.498 92.2284L123.114 92.3194L127.837 98.6971L130.659 91.4158L138.956 89.3007Z" fill="url(#paint2_linear_910_12819)"/>
</g>
<g opacity="0.2">
<path opacity="0.3" d="M42.9562 13.4521L36.0935 8.87461L36.478 1.17969L29.4298 5.62708L21.3673 2.9956L23.8701 10.3258L18.498 16.3798L27.1138 16.4707L31.8368 22.8485L34.6589 15.5672L42.9562 13.4521Z" fill="url(#paint3_linear_910_12819)"/>
</g>
<defs>
<linearGradient id="paint0_linear_910_12819" x1="55.8539" y1="86.9781" x2="41.0665" y2="115.402" gradientUnits="userSpaceOnUse">
<stop stop-color="#E2B64A"/>
<stop offset="0.473958" stop-color="#FFE684"/>
<stop offset="1" stop-color="#CF9E4B"/>
</linearGradient>
<linearGradient id="paint1_linear_910_12819" x1="151.854" y1="9.12943" x2="137.067" y2="37.5534" gradientUnits="userSpaceOnUse">
<stop stop-color="#E2B64A"/>
<stop offset="0.473958" stop-color="#FFE684"/>
<stop offset="1" stop-color="#CF9E4B"/>
</linearGradient>
<linearGradient id="paint2_linear_910_12819" x1="117.108" y1="91.0178" x2="128.284" y2="85.3889" gradientUnits="userSpaceOnUse">
<stop stop-color="#E2B64A"/>
<stop offset="0.473958" stop-color="#FFE684"/>
<stop offset="1" stop-color="#CF9E4B"/>
</linearGradient>
<linearGradient id="paint3_linear_910_12819" x1="21.1081" y1="15.1692" x2="32.2836" y2="9.54026" gradientUnits="userSpaceOnUse">
<stop stop-color="#E2B64A"/>
<stop offset="0.473958" stop-color="#FFE684"/>
<stop offset="1" stop-color="#CF9E4B"/>
</linearGradient>
</defs>
</svg>
