<svg width="70" height="92" viewBox="0 0 70 92" fill="none" xmlns="http://www.w3.org/2000/svg">
<path fill-rule="evenodd" clip-rule="evenodd" d="M34.9959 39.835L36.349 37.7718C38.631 34.2922 40.889 30.8493 43.1461 27.4055C45.3935 23.976 47.6396 20.546 49.8857 17.1161L49.9283 17.0511C51.5454 14.5816 53.1625 12.1122 54.78 9.64299C56.7647 6.61141 58.7494 3.57983 60.7379 0.552044L60.7527 0.529451C60.8625 0.361262 60.981 0.179901 61.1428 0.0783604C61.3222 -0.0340606 61.558 -0.0163764 61.7296 0.161729C61.959 0.399202 61.8975 0.65436 61.7822 0.920886C61.4403 1.70892 61.101 2.49795 60.7616 3.28704L60.7615 3.28741C60.5629 3.74914 60.3643 4.21089 60.1652 4.67246C59.1739 6.96958 58.1827 9.26673 57.1914 11.5639L57.1366 11.691C51.8516 23.9386 46.5666 36.1865 41.2716 48.4307C41.0653 48.9095 41.1063 49.2455 41.3959 49.6825C44.6247 54.5697 47.8368 59.4682 51.0246 64.3819C51.3334 64.8568 51.6525 65.0425 52.2008 64.9869C52.6645 64.9399 53.1237 64.8654 53.5831 64.7909C54.2966 64.6751 55.0109 64.5592 55.7435 64.5461C62.6534 64.4299 68.5857 69.2097 69.7863 75.9006C71.1188 83.3242 66.0821 90.5621 58.538 91.7949C50.4096 93.1225 43.5471 87.845 42.3312 80.5756C41.647 76.4855 42.6784 72.7314 45.4114 69.5217C45.9034 68.9444 45.9354 68.5617 45.5549 67.9162C43.3524 64.1798 40.8116 60.7339 37.2343 58.1432C36.8997 57.9009 36.5483 57.6811 36.1969 57.4613C35.9198 57.2881 35.6428 57.1148 35.3739 56.9305C35.1189 56.7562 34.9473 56.8219 34.7025 56.9596C29.9695 59.6349 26.8022 63.7099 24.1936 68.3002C23.9693 68.6956 24.0411 68.9078 24.305 69.2097C26.0642 71.2282 27.1495 73.5486 27.5838 76.1886C28.473 81.5836 25.872 87.1263 21.0621 89.952C18.4419 91.4918 15.6231 92.0791 12.566 91.8796C6.57098 91.488 0.91289 86.525 0.104409 79.9162C-0.807855 72.4522 4.36207 65.9836 11.5397 64.7368C13.3412 64.4236 15.1504 64.4867 16.9403 64.8834C16.9795 64.8919 17.0189 64.9007 17.0582 64.9094C17.1642 64.933 17.2704 64.9566 17.3759 64.9768C18.0729 65.112 18.556 64.9895 19.0006 64.2985C22.1717 59.376 25.3967 54.4876 28.6255 49.6004C28.8945 49.1937 28.8715 48.8716 28.6959 48.4636C23.8323 37.1971 18.9744 25.9273 14.1167 14.6583L13.1336 12.3777C12.6779 11.321 12.2224 10.2642 11.7668 9.20746C10.5882 6.4732 9.40959 3.739 8.22766 1.00678L8.22119 0.991824C8.07437 0.652682 7.92001 0.296135 8.34554 0.0733077C8.76579 -0.145218 9.00411 0.164255 9.21296 0.483834C11.9847 4.72235 14.7582 8.96005 17.5319 13.1983C18.2085 14.2321 18.8852 15.2659 19.5618 16.2998C21.4723 19.2196 23.3826 22.1394 25.2929 25.0592C28.4353 29.8622 31.5777 34.665 34.7205 39.4674C34.7656 39.5362 34.8158 39.6016 34.8815 39.6874C34.9148 39.7308 34.9521 39.7794 34.9947 39.8362L34.9959 39.835ZM29.4769 50.2135L29.4782 50.2166C29.4414 50.2704 29.412 50.3129 29.3876 50.3483C29.3454 50.4094 29.3178 50.4495 29.2911 50.4901C28.6428 51.4804 27.9943 52.4706 27.3459 53.4607L27.3436 53.4641C24.657 57.5663 21.9707 61.6681 19.296 65.7781C18.9603 66.2934 18.6617 66.469 18.0057 66.248C15.8737 65.5292 13.6891 65.3928 11.4559 65.8084C4.28588 67.141 -0.368973 74.2627 1.40302 81.2366C3.07124 87.8025 9.36355 91.8522 16.144 90.7242C22.1801 89.72 26.7722 84.4059 26.7722 78.3958C26.7734 74.9208 25.5447 71.9183 23.1103 69.4046C22.8246 69.109 22.7041 68.8475 22.9143 68.4598C24.922 64.7461 27.2872 61.2812 30.5827 58.5617C31.5974 57.7242 32.1356 56.8084 32.2855 55.5806C32.2943 55.5093 32.3138 55.4388 32.3333 55.3684C32.359 55.2754 32.3847 55.1827 32.3854 55.0892C32.3905 54.5827 32.6481 54.6118 33.0235 54.7419C35.8064 55.7095 38.1652 57.3288 40.2896 59.3095C43.0738 61.9065 45.2096 64.9785 47.0329 68.2817C47.2891 68.7452 47.2302 69.0572 46.8586 69.4425C44.0629 72.3427 42.9021 75.8176 43.3415 79.7713C44.118 86.773 50.8383 91.8219 57.9455 90.8063C65.9585 89.6593 70.9183 81.5221 68.1764 74.0151C65.7881 67.477 58.654 64.0539 51.9683 66.2631C51.3661 66.4614 51.0381 66.3541 50.7229 65.8172C50.3761 65.2255 49.9929 64.6544 49.6097 64.0833C49.4407 63.8316 49.2718 63.5798 49.106 63.3263C45.5452 57.8791 41.9847 52.4319 38.4242 46.9847C34.8602 41.5321 31.2962 36.0795 27.7318 30.6269C27.1727 29.7712 26.6129 28.9158 26.0532 28.0604C24.4324 25.5836 22.8117 23.1067 21.205 20.6215C20.9911 20.2905 20.8476 20.264 20.5273 20.4484C19.9417 20.787 19.3408 21.1053 18.7245 21.3857C18.3581 21.5524 18.3606 21.7179 18.5054 22.0526C21.9797 30.119 25.4446 38.189 28.9097 46.2596L28.913 46.2672C29.5067 47.65 30.1004 49.0328 30.6941 50.4156C30.9795 51.08 31.2645 51.7445 31.5504 52.411L31.5545 52.4206C31.8205 53.0408 32.0873 53.6629 32.3559 54.2884C31.2504 54.4305 31.2502 54.4299 30.8726 53.5235L30.8671 53.5103C30.58 52.8214 30.2893 52.1346 29.9902 51.428L29.9901 51.4277C29.8224 51.0315 29.652 50.6291 29.4782 50.2166L29.4795 50.2147L29.4769 50.2135ZM39.2433 46.3563C39.5863 46.882 39.9302 47.4093 40.276 47.9381C40.4458 47.7867 40.5072 47.6235 40.5658 47.4677C40.5815 47.426 40.597 47.3848 40.6143 47.3444C40.9719 46.5129 41.3296 45.6813 41.6873 44.8497C42.5549 42.8328 43.4226 40.8157 44.289 38.7979C44.9454 37.2703 45.6014 35.7426 46.2574 34.2149C47.9908 30.1782 49.724 26.1417 51.4641 22.1078C51.6242 21.7365 51.6294 21.5382 51.1989 21.3588C50.6146 21.115 50.0547 20.8043 49.5114 20.4784C49.1386 20.2535 48.9759 20.3192 48.7388 20.6855C46.9496 23.4488 45.147 26.2042 43.3446 28.9593C42.6572 30.0101 41.9697 31.0609 41.2831 32.112C39.4868 34.8619 37.6943 37.6144 35.9031 40.368C35.8906 40.3873 35.8781 40.4062 35.8656 40.4249C35.7247 40.6376 35.6002 40.8255 35.8134 41.1436C36.9666 42.8666 38.0994 44.603 39.2433 46.3563Z" fill="url(#paint0_linear_785_15826)"/>
<path d="M35.5751 51.1983C35.3688 51.1731 35.2279 51.0594 35.2432 50.8421C35.2573 50.635 35.4021 50.4998 35.6135 50.5049C35.8518 50.5099 36.012 50.6489 35.9825 50.8964C35.9582 51.1049 35.8044 51.2084 35.5764 51.1996L35.5751 51.1983Z" fill="url(#paint1_linear_785_15826)"/>
<path fill-rule="evenodd" clip-rule="evenodd" d="M56.0998 85.6194C60.1947 85.6244 63.535 82.3339 63.5388 78.2918H63.5401C63.544 74.2371 60.246 70.9693 56.128 70.9465C52.0369 70.9238 48.6761 74.2219 48.6761 78.2627C48.6748 82.3023 52.0177 85.6156 56.0998 85.6194ZM62.4702 77.9507C62.3472 74.4278 59.2311 71.7853 55.8281 71.9621L55.8268 71.9608C52.4814 71.9558 49.432 75.0051 49.7331 78.8514C49.9522 81.653 52.5493 85.0295 57.0312 84.5242C59.9282 84.1983 62.5958 81.5166 62.4702 77.9507Z" fill="url(#paint2_linear_785_15826)"/>
<path fill-rule="evenodd" clip-rule="evenodd" d="M6.41468 78.3271C6.43134 82.2619 9.74598 85.5777 13.6436 85.56L13.6449 85.5613C17.7731 85.5423 21.0365 82.2493 21.0135 78.125C20.9904 74.2497 17.7014 70.9491 13.8614 70.9465C9.7447 70.944 6.39674 74.2623 6.41468 78.3271ZM7.49098 78.2299C7.4551 81.9183 10.6211 84.6796 13.7948 84.5368C17.3913 84.552 20.2345 81.7996 20.2486 78.288C20.2627 74.7246 17.4452 71.904 13.8614 71.8939C10.3187 71.8851 7.52429 74.6741 7.49098 78.2299Z" fill="url(#paint3_linear_785_15826)"/>
<defs>
<linearGradient id="paint0_linear_785_15826" x1="35" y1="11.4228" x2="35" y2="61.1275" gradientUnits="userSpaceOnUse">
<stop stop-color="#E2B64A"/>
<stop offset="0.473958" stop-color="#FFE684"/>
<stop offset="1" stop-color="#CF9E4B"/>
</linearGradient>
<linearGradient id="paint1_linear_785_15826" x1="35" y1="11.4228" x2="35" y2="61.1275" gradientUnits="userSpaceOnUse">
<stop stop-color="#E2B64A"/>
<stop offset="0.473958" stop-color="#FFE684"/>
<stop offset="1" stop-color="#CF9E4B"/>
</linearGradient>
<linearGradient id="paint2_linear_785_15826" x1="35" y1="11.4228" x2="35" y2="61.1275" gradientUnits="userSpaceOnUse">
<stop stop-color="#E2B64A"/>
<stop offset="0.473958" stop-color="#FFE684"/>
<stop offset="1" stop-color="#CF9E4B"/>
</linearGradient>
<linearGradient id="paint3_linear_785_15826" x1="35" y1="11.4228" x2="35" y2="61.1275" gradientUnits="userSpaceOnUse">
<stop stop-color="#E2B64A"/>
<stop offset="0.473958" stop-color="#FFE684"/>
<stop offset="1" stop-color="#CF9E4B"/>
</linearGradient>
</defs>
</svg>
