<svg width="53" height="92" viewBox="0 0 53 92" fill="none" xmlns="http://www.w3.org/2000/svg">
<path fill-rule="evenodd" clip-rule="evenodd" d="M18.9637 53.6573C18.8852 56.3458 18.8067 59.0343 18.7284 61.7228V61.724H18.6937C18.6937 61.9149 18.6952 62.1058 18.6967 62.2967C18.6999 62.7103 18.7031 63.1239 18.6913 63.5375C18.6032 66.5761 18.5135 69.6147 18.4238 72.6534C18.2744 77.7171 18.1249 82.7809 17.9828 87.8446C17.9147 90.2913 19.5754 91.9934 21.9866 91.9972C25.0148 92.0009 28.0418 92.0009 31.07 91.9972C33.4404 91.9947 35.0861 90.2901 35.028 87.8797C34.9873 86.2047 34.9372 84.5303 34.8871 82.8558V82.8555L34.887 82.8517C34.8579 81.8825 34.8289 80.9132 34.8018 79.9437C34.736 77.5786 34.671 75.2135 34.606 72.8484C34.4889 68.5892 34.3719 64.3299 34.2503 60.0707C34.1208 55.5379 33.9891 51.005 33.8574 46.4722L33.8564 46.4389C33.747 42.6714 33.6376 38.904 33.5294 35.1366C33.5108 34.4833 33.3859 33.86 33.0941 33.2718C32.6292 32.3344 32.6193 31.397 33.1139 30.4646C33.4119 29.904 33.5529 29.312 33.5455 28.67C33.534 27.6334 33.5363 26.5975 33.5386 25.5618V25.5614C33.5396 25.1379 33.5405 24.7144 33.5405 24.2909C33.5405 22.5275 34.3529 21.7065 36.1026 21.7065C37.1929 21.7065 38.2834 21.7073 39.3739 21.7081H39.3744C41.8676 21.7099 44.3611 21.7118 46.854 21.704C50.5165 21.6927 52.9995 19.1621 52.9995 15.4614C52.9995 14.4188 52.9996 13.3763 52.9997 12.3338C53 10.2487 53.0003 8.1637 52.9995 6.07866C52.997 2.58941 50.4436 0 47.0061 0H6.10114C2.58327 0 0.0274079 2.57314 0.0236983 6.11996C0.0229186 7.10602 0.0300053 8.0922 0.0370916 9.07835C0.0524817 11.2201 0.0678707 13.3616 0.00267769 15.5014C-0.0974795 18.7954 2.62408 21.8016 6.15431 21.699C8.70955 21.6257 11.2666 21.6433 13.8238 21.661H13.8241C14.8925 21.6683 15.961 21.6757 17.0294 21.6764C18.6208 21.6777 19.4703 22.53 19.4777 24.1369C19.4863 25.6175 19.4851 27.098 19.4777 28.5786C19.474 29.2569 19.6001 29.894 19.9253 30.4947C20.4038 31.3783 20.4137 32.2819 19.9587 33.1805C19.6236 33.8438 19.4938 34.5534 19.4752 35.288C19.4668 35.627 19.462 35.966 19.4572 36.3048C19.4513 36.7166 19.4454 37.1283 19.4332 37.5395C19.2774 42.9121 19.1206 48.2847 18.9637 53.6573ZM33.3832 66.3499C33.3422 64.8551 33.3011 63.3603 33.2599 61.8654H33.2537C33.2051 60.1398 33.1567 58.4141 33.1082 56.6884L33.1082 56.6868C32.9631 51.5184 32.818 46.3499 32.6688 41.1815C32.6557 40.7301 32.6438 40.2786 32.632 39.827L32.6319 39.8244C32.5869 38.1107 32.5419 36.3962 32.4264 34.6873C32.3288 33.2555 31.091 32.1642 29.6802 32.1479C28.1118 32.1294 26.5441 32.1342 24.9761 32.1389L24.9701 32.139C24.4187 32.1406 23.8673 32.1423 23.3159 32.1429C22.5072 32.1442 21.8555 32.4909 21.3016 33.0691C20.5127 33.8926 20.4793 34.9338 20.4496 35.9814L20.0935 48.7294C20.0466 50.41 20 52.0907 19.9535 53.7714L19.9534 53.7745C19.8453 57.6751 19.7372 61.5759 19.6249 65.4761C19.5358 68.5723 19.4452 71.6685 19.3546 74.7647L19.3546 74.7654C19.2252 79.1881 19.0959 83.6109 18.9708 88.0336C18.925 89.6893 20.1739 91.0423 21.8469 91.0623C24.9555 91.0998 28.0665 91.0973 31.1763 91.0635C32.8617 91.046 34.1081 89.6731 34.0401 88.0461C33.9573 86.0474 33.8769 84.0487 33.82 82.05C33.671 76.8202 33.5273 71.5904 33.3835 66.3606L33.3832 66.3499ZM3.20774 7.69814C1.63119 7.69814 0.854666 6.85211 1.04633 5.31774C1.17616 4.28272 1.5805 3.3616 2.29396 2.59442C3.27451 1.54063 4.48135 1.00248 5.91199 1.00248C19.6508 0.999972 33.3885 0.998721 47.1273 1.00248C49.7413 1.00248 51.8842 3.0725 51.9831 5.65815C52.0313 6.92094 51.3636 7.66059 50.1073 7.69313C49.4915 7.7088 48.8757 7.7051 48.2595 7.70139L48.2592 7.70139C47.9896 7.69976 47.7199 7.69814 47.45 7.69814H3.20774ZM32.6634 14.0217H32.6631C30.6247 14.02 28.5864 14.0183 26.5481 14.0183H3.19042C1.50877 14.0183 0.754501 14.9595 1.08836 16.634C1.59162 19.1646 3.48348 20.7103 6.09869 20.7103H44.7841C45.0301 20.7103 45.2761 20.7116 45.5221 20.713C46.0588 20.7159 46.5955 20.7189 47.1322 20.7078C49.5063 20.6577 51.3846 19.1121 51.8977 16.778C52.312 14.8907 51.4081 13.9908 49.7227 13.9996C44.0366 14.0309 38.3498 14.0263 32.6634 14.0217ZM26.4974 13.0309C24.5661 13.0309 22.6349 13.031 20.7037 13.0312C14.9097 13.0317 9.11589 13.0321 3.3215 13.0284C1.66334 13.0284 0.622202 11.5979 1.1539 10.0798C1.43582 9.27506 2.21483 8.68559 3.06802 8.63428C3.13909 8.62994 3.21076 8.63101 3.2822 8.63208C3.3139 8.63255 3.34561 8.63303 3.37714 8.63303H49.604C51.1348 8.63303 52.0906 9.62799 51.9707 11.086C51.8866 12.111 51.0594 12.942 50.043 13.0171C49.8535 13.0308 49.6622 13.0303 49.4714 13.0298C49.452 13.0298 49.4326 13.0297 49.4133 13.0297C49.3969 13.0297 49.3805 13.0296 49.3641 13.0296H26.4974V13.0309ZM27.6641 21.704C27.2846 21.7046 26.9052 21.7052 26.5258 21.7052C26.1392 21.7052 25.7527 21.7043 25.3662 21.7033C24.497 21.7012 23.6282 21.6991 22.7594 21.7077C21.3869 21.7215 20.4867 22.6188 20.4694 24.0155C20.4508 25.5987 20.4533 27.1819 20.4694 28.7651C20.4842 30.1042 21.3102 31.0491 22.6283 31.0741C25.22 31.1229 27.8142 31.1229 30.406 31.0679C31.7303 31.0403 32.5365 30.0867 32.5414 28.7438C32.5464 27.2032 32.5439 25.6613 32.5414 24.1194C32.5402 22.6113 31.6635 21.7165 30.1686 21.7065C29.3337 21.7013 28.4989 21.7026 27.6641 21.704Z" fill="url(#paint0_linear_785_15835)"/>
<defs>
<linearGradient id="paint0_linear_785_15835" x1="26.5" y1="11.4228" x2="26.5" y2="61.1275" gradientUnits="userSpaceOnUse">
<stop stop-color="#E2B64A"/>
<stop offset="0.473958" stop-color="#FFE684"/>
<stop offset="1" stop-color="#CF9E4B"/>
</linearGradient>
</defs>
</svg>
