<svg width="47" height="101" viewBox="0 0 47 101" fill="none" xmlns="http://www.w3.org/2000/svg">
<path fill-rule="evenodd" clip-rule="evenodd" d="M32.5034 16.9009L32.5069 16.9009C34.1654 16.897 35.5143 18.2354 35.5237 19.8934V37.853C35.5234 38.6515 35.2044 39.4171 34.6374 39.98L34.6332 39.9842C34.0694 40.5484 33.3038 40.8648 32.5061 40.8634H14.539C12.8767 40.8634 11.5293 39.516 11.5293 37.8537L11.5293 19.9106L11.5293 19.9079C11.5279 19.1174 11.8387 18.3584 12.3933 17.796L12.5334 17.6647C13.0817 17.1729 13.7921 16.9009 14.5284 16.9009L32.5034 16.9009ZM13.0284 39.3537H34.0034V18.3893H13.0284V39.3537Z" fill="url(#paint0_linear_785_15831)"/>
<path fill-rule="evenodd" clip-rule="evenodd" d="M46.8834 4.0868L46.8835 4.13281L46.8864 4.17873C46.8942 4.3016 46.8951 4.42495 46.8891 4.54792L36.2473 83.861V97.6598C36.247 98.4106 35.947 99.1303 35.4143 99.659L35.4074 99.666C34.8774 100.199 34.1572 100.499 33.4057 100.5L13.5964 100.5L13.5937 100.5C12.0269 100.495 10.758 99.2255 10.7532 97.6586V83.861L0.111426 4.54795C0.105435 4.42496 0.106324 4.30161 0.114095 4.17873L0.116701 4.13752L0.117037 4.09623C0.124381 3.19096 0.498075 2.32695 1.15297 1.70126L1.15988 1.69466L1.16669 1.68798C1.76986 1.09685 2.53687 0.70174 3.36677 0.55318H3.45371L3.55628 0.53895C3.73014 0.51483 3.90536 0.5018 4.08052 0.5H42.9953C43.1696 0.501572 43.344 0.514525 43.5171 0.538725L43.5183 0.538895C44.4044 0.662075 45.2278 1.06546 45.868 1.69024L45.8696 1.69175C46.5163 2.32099 46.8818 3.18439 46.8834 4.0868ZM34.1845 1.99907H24.2604V6.33922H34.1845V1.99907ZM22.772 1.99907H12.8479V6.37113H22.772V1.99907ZM1.7063 3.88895L1.67666 4.09227L1.977 6.43494H11.402V2.03098H3.82021L3.69639 2.05186C3.18238 2.13852 2.70597 2.37558 2.32711 2.73212C1.9909 3.0332 1.77136 3.44268 1.7063 3.88895ZM18.3493 96.716L16.9785 98.9903H30.135L28.7559 96.7132C28.5143 96.3144 28.2278 95.9445 27.9016 95.6109C25.5529 93.2084 21.7007 93.1647 19.298 95.5137L19.2938 95.5178C18.93 95.8763 18.6129 96.2788 18.3493 96.716ZM30.8536 97.8816L31.1532 98.9903H34.7858L34.732 84.6309H12.3267V98.9903H15.9537L16.2533 97.8816C16.9551 95.2844 18.9838 93.2559 21.5809 92.554C25.6125 91.4646 29.7641 93.8498 30.8536 97.8816ZM12.184 83.1106H34.8814L44.8626 7.89147H35.2928L35.1001 7.94368C34.9704 7.97883 34.8339 7.97883 34.7042 7.94368L34.5115 7.89147H23.7965L23.6441 7.92347C23.5421 7.94489 23.4371 7.94489 23.3351 7.92347L23.1827 7.89147H2.13636L12.184 83.1106ZM35.673 6.26477H45.1153L45.3871 4.05654L45.358 3.85705C45.2927 3.40868 45.0714 2.99745 44.7325 2.69598C44.3335 2.32466 43.8283 2.08504 43.2859 2.01236L43.1867 1.99907H35.673V6.26477Z" fill="url(#paint1_linear_785_15831)"/>
<defs>
<linearGradient id="paint0_linear_785_15831" x1="23.5003" y1="12.9161" x2="23.5003" y2="66.9429" gradientUnits="userSpaceOnUse">
<stop stop-color="#E2B64A"/>
<stop offset="0.473958" stop-color="#FFE684"/>
<stop offset="1" stop-color="#CF9E4B"/>
</linearGradient>
<linearGradient id="paint1_linear_785_15831" x1="23.5003" y1="12.9161" x2="23.5003" y2="66.9429" gradientUnits="userSpaceOnUse">
<stop stop-color="#E2B64A"/>
<stop offset="0.473958" stop-color="#FFE684"/>
<stop offset="1" stop-color="#CF9E4B"/>
</linearGradient>
</defs>
</svg>
