<svg width="56" height="104" viewBox="0 0 56 104" fill="none" xmlns="http://www.w3.org/2000/svg">
<path fill-rule="evenodd" clip-rule="evenodd" d="M55.1017 96.905V52.038L55.1004 52.0445V7.1128C55.1004 2.81105 51.3238 -0.479279 47.0492 0.0574698C45.9542 0.194689 44.8541 0.286576 43.7542 0.378439C43.2887 0.417321 42.8232 0.456199 42.3582 0.498509C41.2731 0.596968 40.1879 0.69506 39.1025 0.793162C36.652 1.01465 34.201 1.23619 31.7512 1.46207C30.303 1.59509 28.855 1.73234 27.407 1.86959C25.8563 2.01657 24.3056 2.16355 22.7546 2.30535C21.0462 2.46162 19.3373 2.61396 17.6281 2.76632C15.8009 2.92921 13.9734 3.09211 12.1463 3.25985C10.3251 3.42676 8.50459 3.59853 6.68403 3.7703C4.99179 3.92997 3.29953 4.08963 1.60667 4.2454C0.891436 4.31136 0.668976 4.5196 0.667683 5.25294C0.664911 6.73103 0.665439 8.20846 0.665967 9.68617C0.666178 10.2773 0.666389 10.8685 0.666389 11.4598C0.666389 12.5049 0.821594 12.6627 1.84465 12.6627C4.71085 12.6627 7.57691 12.6625 10.4429 12.6624C16.1745 12.6621 21.9058 12.6618 27.637 12.6627C29.4361 12.6627 30.4708 13.7051 30.476 15.5107C30.4768 15.8675 30.4732 16.2246 30.4696 16.5818C30.4616 17.3675 30.4537 18.1534 30.4928 18.9368C30.5238 19.5563 30.3078 19.6598 29.7426 19.6598C22.2776 19.6462 14.8116 19.647 7.34622 19.6478C5.5895 19.648 3.83281 19.6481 2.07616 19.6481C2.01795 19.6481 1.9595 19.6464 1.90106 19.6446C1.76476 19.6406 1.62851 19.6365 1.49544 19.6546C1.06345 19.7128 0.776326 19.934 0.777619 20.4086C0.778912 20.8833 1.07121 21.1019 1.49932 21.1653C1.6331 21.1853 1.77009 21.181 1.90712 21.1767C1.96483 21.1748 2.02255 21.173 2.08004 21.173C3.84103 21.173 5.60201 21.1732 7.363 21.1734C14.8457 21.1742 22.3285 21.175 29.8112 21.1614C30.3376 21.1601 30.5031 21.2791 30.4902 21.8262C30.4527 23.5063 30.4449 25.1876 30.4928 26.8677C30.5096 27.4653 30.3169 27.5597 29.7724 27.5597C22.2891 27.5461 14.8059 27.5469 7.32262 27.5477C5.56216 27.5479 3.8017 27.548 2.04124 27.548C1.132 27.548 0.794433 27.7472 0.776326 28.2904C0.756925 28.8569 1.10872 29.0729 2.05029 29.0729C3.59498 29.0729 5.13963 29.073 6.68426 29.0731C14.405 29.0737 22.1251 29.0742 29.8461 29.0613C30.3453 29.06 30.5006 29.1751 30.4902 29.6924C30.4566 31.3725 30.4514 33.0539 30.4928 34.734C30.507 35.3057 30.3557 35.4376 29.7866 35.4376C22.3026 35.4209 14.8194 35.4219 7.33575 35.4229C5.55414 35.4231 3.77249 35.4234 1.9908 35.4234C1.93847 35.4234 1.88589 35.4217 1.8333 35.42C1.71302 35.4162 1.59263 35.4123 1.47475 35.4285C1.06863 35.4867 0.806073 35.7014 0.778912 36.1386C0.751752 36.5809 1.00396 36.8254 1.39326 36.925C1.54389 36.9643 1.70662 36.9588 1.86824 36.9533C1.9245 36.9514 1.98063 36.9495 2.03607 36.9495C3.29352 36.9497 4.55099 36.95 5.80848 36.9502C13.773 36.9518 21.7383 36.9534 29.7025 36.9366C30.2949 36.9353 30.5174 37.0271 30.4954 37.6881C30.4398 39.3242 30.4488 40.9642 30.4915 42.6003C30.507 43.1926 30.3428 43.3375 29.753 43.3375C22.358 43.322 14.963 43.323 7.56807 43.324C5.71933 43.3243 3.87058 43.3246 2.02184 43.3246C1.96574 43.3246 1.90893 43.3226 1.85199 43.3207C1.69103 43.3152 1.52903 43.3096 1.37904 43.3478C0.984558 43.45 0.746578 43.7152 0.778912 44.1471C0.80866 44.5442 1.04664 44.7744 1.43077 44.8326C1.58688 44.8556 1.74795 44.8524 1.90821 44.8491C1.96438 44.848 2.02044 44.8469 2.07616 44.8469C3.83687 44.8469 5.59758 44.847 7.35829 44.8472C14.8413 44.848 22.3243 44.8488 29.8073 44.8352C30.3259 44.8339 30.5057 44.9335 30.4928 45.491C30.4527 47.171 30.4514 48.8524 30.4928 50.5325C30.5057 51.1042 30.3531 51.24 29.7827 51.24C21.4192 51.2224 13.0558 51.225 4.69228 51.2276C3.81205 51.2278 2.93182 51.2281 2.05159 51.2283C1.99533 51.2283 1.93902 51.2265 1.88269 51.2247C1.68261 51.2183 1.48243 51.2119 1.28462 51.2865C0.908249 51.4288 0.743991 51.6953 0.782793 52.0871C0.819007 52.4596 1.05699 52.6627 1.40102 52.7287C1.5346 52.7545 1.67409 52.7494 1.8134 52.7444C1.86968 52.7423 1.92593 52.7403 1.98175 52.7403C3.61945 52.7403 5.2572 52.7404 6.89497 52.7405C14.544 52.7411 22.1935 52.7417 29.8422 52.7299C30.3285 52.7287 30.5031 52.8231 30.4915 53.3521C30.454 55.0528 30.4449 56.7575 30.4941 58.4583C30.5122 59.0856 30.2936 59.1839 29.7323 59.1839C22.2482 59.1703 14.7642 59.1711 7.28012 59.1718C5.52046 59.172 3.7608 59.1722 2.00115 59.1722C1.94894 59.1722 1.89665 59.1716 1.84433 59.1709C1.70222 59.1691 1.55999 59.1674 1.41913 59.1787C1.01043 59.2097 0.79702 59.4477 0.777619 59.8487C0.755632 60.2755 0.963864 60.5497 1.38809 60.6182C1.54013 60.6434 1.69621 60.639 1.85244 60.6346C1.91284 60.6329 1.97326 60.6311 2.03348 60.6311C3.88204 60.6311 5.7306 60.6315 7.57916 60.6318C14.9743 60.633 22.3695 60.6343 29.7646 60.6156C30.3829 60.6143 30.5006 60.8045 30.4889 61.3684C30.454 63.0265 30.4501 64.6872 30.4902 66.3453C30.5044 66.9312 30.3518 67.0915 29.7517 67.0902C22.285 67.0735 14.8182 67.0745 7.35152 67.0755C5.57453 67.0758 3.79754 67.076 2.02055 67.076C1.96694 67.076 1.91318 67.0753 1.85935 67.0746C1.69759 67.0724 1.53528 67.0702 1.37516 67.0876C0.998785 67.129 0.806073 67.3683 0.780206 67.7343C0.753045 68.1236 0.904369 68.4185 1.30531 68.5052C1.46295 68.5397 1.6296 68.5359 1.79496 68.5321C1.84667 68.5309 1.89826 68.5298 1.94941 68.5298C3.71797 68.5298 5.48658 68.5299 7.25521 68.5301C14.7734 68.5309 22.2921 68.5317 29.8099 68.5181C30.3402 68.5168 30.5018 68.641 30.4902 69.1881C30.4527 70.8889 30.4475 72.5935 30.4928 74.2943C30.5083 74.888 30.3195 74.9863 29.7724 74.9863C22.2697 74.9726 14.768 74.9734 7.26564 74.9742C5.50266 74.9744 3.73964 74.9746 1.97657 74.9746C1.92015 74.9746 1.86339 74.9729 1.80663 74.9711C1.66823 74.9668 1.52976 74.9626 1.39585 74.9837C0.971625 75.0509 0.756925 75.3225 0.778912 75.7493C0.799606 76.1438 1.00396 76.3947 1.41784 76.4232C1.58858 76.4356 1.76098 76.4348 1.93371 76.434C1.97687 76.4337 2.02005 76.4335 2.06323 76.4335C3.9026 76.4335 5.74191 76.4338 7.5812 76.4341C14.9425 76.4351 22.3034 76.4361 29.665 76.4206C30.2833 76.4193 30.5225 76.515 30.4967 77.2109C30.4346 78.8677 30.4462 80.5296 30.4928 82.1877C30.5096 82.7775 30.3285 82.8797 29.7789 82.8797C22.1994 82.8649 14.6209 82.8656 7.04177 82.8664C5.35556 82.8666 3.66932 82.8668 1.98304 82.8668C1.92917 82.8668 1.87531 82.8656 1.82152 82.8645C1.70225 82.862 1.58336 82.8595 1.46569 82.8693C1.07251 82.903 0.828061 83.119 0.781499 83.5121C0.732351 83.9299 0.903076 84.2351 1.33247 84.3231C1.5821 84.3748 1.84465 84.3787 2.10074 84.3787C3.07118 84.379 4.04163 84.3793 5.01209 84.3796C13.2636 84.3821 21.5159 84.3847 29.7672 84.3697C30.3091 84.3684 30.5238 84.4576 30.4928 85.0616C30.4508 85.8703 30.4602 86.6812 30.4696 87.4921C30.4729 87.7809 30.4763 88.0697 30.4773 88.3584C30.4863 90.4718 29.5913 91.3681 27.4637 91.3681H1.80067C0.846168 91.3681 0.666389 91.5453 0.666389 92.4881C0.663803 94.5795 0.662509 96.6696 0.666389 98.7597C0.667683 99.5085 0.877209 99.7349 1.58468 99.7996C3.9095 100.013 6.234 100.227 8.5585 100.441C10.883 100.655 13.2075 100.869 15.5324 101.083C16.6697 101.187 17.8069 101.292 18.9442 101.396C22.9701 101.767 26.9962 102.138 31.0231 102.503C33.4976 102.727 35.9721 102.948 38.4467 103.169C41.4146 103.435 44.3826 103.701 47.3506 103.971C51.4777 104.347 55.1017 101.052 55.1017 96.905ZM53.662 96.764V52.0302C53.662 49.9106 53.662 47.791 53.6619 45.6714C53.6618 32.9225 53.6616 20.1735 53.6672 7.42451C53.6685 6.96795 53.6297 6.51785 53.5288 6.0794C52.9364 3.50301 50.7338 1.14649 47.5004 1.51251C46.1613 1.66427 44.8176 1.77349 43.474 1.8827C42.8021 1.93731 42.1303 1.99192 41.4591 2.05185C38.8891 2.28077 36.3179 2.51487 33.748 2.74897C32.4307 2.86861 31.1137 2.98954 29.7967 3.11047C28.4798 3.2314 27.1628 3.35233 25.8455 3.47197C24.6862 3.57693 23.5269 3.68059 22.3677 3.78423C20.9559 3.91045 19.5443 4.03666 18.1331 4.16521C16.8845 4.27862 15.6361 4.39463 14.3878 4.51065C13.0022 4.63942 11.6166 4.76819 10.2306 4.89338C7.7034 5.12231 5.17486 5.34735 2.64632 5.56205C2.27512 5.59439 2.13803 5.73148 2.14449 6.12338C2.16777 7.54479 2.18459 8.96879 2.13803 10.3889C2.11863 10.9852 2.29323 11.1235 2.87783 11.1222C10.3793 11.1034 17.8819 11.106 25.3836 11.1086C26.1338 11.1088 26.884 11.1091 27.6342 11.1093C30.3464 11.1093 32.0511 12.8282 32.0511 15.5482V88.3403C32.0511 91.2168 30.3555 92.9162 27.4868 92.9162C26.0354 92.9162 24.5841 92.9164 23.1327 92.9165C16.3534 92.9171 9.57468 92.9176 2.79506 92.9059C2.30746 92.9046 2.1238 93.0029 2.14061 93.5345C2.16917 94.4706 2.16361 95.4073 2.15804 96.3438C2.15579 96.7219 2.15355 97.1 2.15355 97.478C2.15355 98.1186 2.47387 98.4601 3.11452 98.5023C3.15849 98.5049 3.20118 98.5075 3.24386 98.5114C3.89311 98.5687 4.54236 98.6258 5.19162 98.683C7.13557 98.8541 9.07952 99.0252 11.0235 99.2007C13.0105 99.3797 14.9964 99.5613 16.9824 99.7428C18.1674 99.8512 19.3523 99.9595 20.5375 100.067C22.0786 100.208 23.6193 100.347 25.1601 100.486C26.1692 100.578 27.1784 100.669 28.1878 100.761C31.3164 101.045 34.4438 101.331 37.5725 101.618C38.453 101.699 39.3333 101.782 40.2135 101.865C41.9682 102.03 43.7227 102.195 45.4788 102.344C45.7755 102.369 46.0726 102.403 46.37 102.438C47.3162 102.549 48.2652 102.66 49.2089 102.46C51.753 101.921 53.662 99.4516 53.662 96.764Z" fill="url(#paint0_linear_785_15838)"/>
<defs>
<linearGradient id="paint0_linear_785_15838" x1="27.8828" y1="12.9128" x2="27.8828" y2="69.1007" gradientUnits="userSpaceOnUse">
<stop stop-color="#E2B64A"/>
<stop offset="0.473958" stop-color="#FFE684"/>
<stop offset="1" stop-color="#CF9E4B"/>
</linearGradient>
</defs>
</svg>
