<svg width="90" height="93" viewBox="0 0 90 93" fill="none" xmlns="http://www.w3.org/2000/svg">
<path fill-rule="evenodd" clip-rule="evenodd" d="M83.8353 46.7112C88.0284 41.2305 89.9143 34.9403 89.9988 28.0641L89.9975 28.0654C90.0305 25.7179 89.7333 23.4223 89.0624 21.1786C87.4526 15.8045 84.1747 12.1187 78.6874 10.5542C72.6692 8.83779 66.503 8.19997 60.296 7.82847C57.9197 7.68637 55.5406 7.59653 53.1614 7.50669C49.4765 7.36756 45.7913 7.22841 42.1159 6.89505C38.4207 6.55949 34.7493 6.07348 31.1386 5.19731C27.8112 4.38966 24.4847 3.57738 21.1581 2.76507L21.1575 2.76493C17.5684 1.88852 13.9791 1.01209 10.3885 0.141396C8.13545 -0.404541 6.29974 0.660703 5.77809 2.81383C3.87899 10.6633 1.98517 18.5142 0.107201 26.3651C-0.366914 28.3437 0.771489 30.2172 2.71681 30.6939C4.33123 31.0898 5.94749 31.4787 7.56376 31.8676L7.56424 31.8677C9.82441 32.4115 12.0846 32.9553 14.3399 33.5182C15.7113 33.8602 17.0879 34.1824 18.4646 34.5045L18.4651 34.5047C21.2681 35.1606 24.071 35.8165 26.8306 36.6407C31.5599 38.0534 36.0739 40.0295 40.5575 42.0801C44.1246 43.7126 47.6903 45.3464 51.2548 46.9842C51.2843 46.9977 51.3143 47.0101 51.3439 47.0223C51.5384 47.1022 51.7159 47.1753 51.6219 47.5381C51.1954 49.1826 50.8137 50.8404 50.4413 52.4982C50.3554 52.8803 50.189 52.8936 49.8681 52.8097C48.702 52.5061 47.5319 52.2225 46.3604 51.9402C43.5263 51.2585 40.469 53.0667 39.7255 55.8843C39.4217 57.0348 39.1536 58.1972 38.9054 59.3623C38.2292 62.5261 40.0226 65.385 43.1526 66.1613C43.3771 66.217 43.6015 66.2728 43.8259 66.3287L43.8268 66.3289C44.7072 66.5481 45.5873 66.7672 46.4701 66.9762C46.8121 67.0561 46.9613 67.1173 46.8491 67.5754C46.0868 70.6667 45.347 73.7639 44.6072 76.8611L44.6068 76.8625C44.3009 78.1433 43.995 79.4241 43.6874 80.7045C43.2529 82.5154 42.8303 84.309 43.212 86.2065C43.9806 90.0187 47.3602 92.9348 51.1729 92.9987C55.1784 93.0667 58.6967 90.3423 59.6053 86.5234C61.9571 76.633 64.3239 66.7449 66.6906 56.8569L66.6908 56.8561L67.2175 54.6553C67.675 52.7441 67.6863 52.7458 69.6607 53.0373L69.6885 53.0414C71.3776 53.2918 73.0574 53.2412 74.7294 52.859C78.5487 51.9868 81.5004 49.7631 83.8353 46.7112ZM66.9032 47.7924C73.2767 41.409 76.6272 33.7352 76.6602 24.6939H76.6615C76.618 19.915 75.7463 15.3664 73.9819 10.9909C73.8287 10.6101 73.6082 10.4357 73.2305 10.3771C69.4521 9.79384 65.6605 9.33312 61.8504 9.0242C59.213 8.81035 56.5695 8.72337 53.9262 8.63639L53.926 8.63638C52.6356 8.59392 51.3453 8.55146 50.0557 8.49424C43.9291 8.22261 37.8185 7.82713 31.8095 6.48626C31.4014 6.39571 31.2099 6.46762 31.1016 6.92434C28.9345 16.0721 26.7541 25.2159 24.5538 34.3544C24.4429 34.8111 24.6265 34.871 24.9514 34.9669C25.1772 35.0336 25.4031 35.0999 25.6291 35.1662L25.6301 35.1664C26.6855 35.4761 27.741 35.7858 28.7839 36.1333C35.0427 38.2217 40.9981 41.0325 46.9537 43.8433L47.3663 44.038C47.5729 44.1355 47.7796 44.233 47.9862 44.3304C52.9836 46.6873 58.109 48.7179 63.3507 50.4556C63.6914 50.5687 63.9014 50.5275 64.1708 50.2958C65.1071 49.4888 66.029 48.6686 66.9032 47.7924ZM1.11233 27.0575C1.22247 26.2585 1.44408 25.3891 1.67227 24.4938C1.76697 24.1223 1.8628 23.7463 1.95227 23.369C3.03018 18.833 4.11952 14.3001 5.20893 9.76686L5.20899 9.7666C5.73326 7.585 6.25755 5.40335 6.78058 3.22128C7.17941 1.5595 8.37857 0.789857 10.0294 1.18932C14.4008 2.24925 18.771 3.31392 23.1413 4.37858C25.3263 4.9109 27.5114 5.44321 29.6966 5.97493C30.0201 6.0535 30.1878 6.10942 30.0756 6.57413C27.8807 15.6926 25.7135 24.8164 23.5555 33.9429C23.4353 34.4489 23.261 34.5634 22.7433 34.4356C18.0484 33.2819 13.3501 32.1418 8.65174 31.0017C6.77245 30.5456 4.89315 30.0896 3.01407 29.6327C1.84926 29.3491 1.10705 28.4037 1.11233 27.0561V27.0575ZM63.9199 51.7938C60.0768 50.7285 56.3419 49.3517 52.6639 47.7445L52.6626 47.7458C52.6414 47.8194 52.6202 47.8892 52.5996 47.9567C52.5589 48.0909 52.5208 48.2161 52.4909 48.3437C51.6893 51.7255 50.8884 55.1074 50.0876 58.4893L50.0767 58.5353C48.3084 66.0025 46.5401 73.4696 44.7638 80.9349C44.7287 81.0821 44.693 81.2292 44.6573 81.3763L44.6569 81.3778C44.3217 82.7584 43.9874 84.1355 44.1867 85.5767C44.6753 89.1039 47.5887 91.783 51.0752 91.9335C54.5947 92.0853 57.7273 89.6552 58.5501 86.1785C59.7437 81.1336 60.9465 76.0914 62.1492 71.0495L62.1564 71.0191C62.656 68.9249 63.1555 66.8307 63.6544 64.7365C63.814 64.0664 63.9735 63.3963 64.1331 62.7263L64.1434 62.683C64.9057 59.4811 65.6678 56.2801 66.437 53.08C66.5374 52.6659 66.511 52.4449 66.0118 52.353C65.5087 52.2612 65.0156 52.1149 64.5226 51.9687C64.3219 51.9092 64.1212 51.8496 63.9199 51.7938ZM65.1746 51.1187L65.1756 51.1175L65.8177 51.2475C66.5974 51.4054 67.3215 51.5521 68.0457 51.6979C69.9712 52.0867 71.9007 52.3224 73.8618 51.9549C77.3655 51.2984 80.2076 49.4582 82.3998 46.7245C88.0073 39.7299 89.9593 31.7246 88.3467 22.899C87.7392 19.5728 86.1862 16.666 83.6215 14.373C81.5346 12.508 78.9762 11.7992 76.3556 11.0731C75.9694 10.9661 75.5819 10.8587 75.1944 10.7472C75.2583 10.9515 75.3183 11.1457 75.3763 11.3334L75.3778 11.3384C75.4832 11.6799 75.582 11.9997 75.6856 12.3185C77.598 18.2159 78.3203 24.2186 77.3114 30.385C76.2601 36.8124 73.4194 42.341 69.1141 47.1493C68.4236 47.9207 67.6821 48.6399 66.9273 49.372C66.3456 49.9362 65.756 50.5081 65.1756 51.1175L65.1746 51.1173V51.1187ZM47.7144 53.4545C46.8829 53.2353 46.0847 53.0249 45.3608 52.9549C43.1051 52.9615 41.202 54.4209 40.7411 56.3264C40.477 57.4183 40.2221 58.5141 39.9698 59.61C39.4006 62.0867 40.9035 64.5434 43.3547 65.1533C43.5907 65.2119 43.8269 65.2699 44.0631 65.3279C44.8892 65.5308 45.7149 65.7337 46.5335 65.9615C46.9997 66.092 47.1965 66.0041 47.3166 65.4955C47.9207 62.9225 48.5435 60.3546 49.1664 57.7864C49.3852 56.8844 49.6039 55.9824 49.8219 55.08C50.0715 54.0467 50.0768 54.0201 49.0361 53.7858C48.5904 53.6854 48.1478 53.5687 47.7144 53.4545Z" fill="url(#paint0_linear_785_15829)"/>
<defs>
<linearGradient id="paint0_linear_785_15829" x1="44.9999" y1="11.547" x2="44.9999" y2="61.7919" gradientUnits="userSpaceOnUse">
<stop stop-color="#E2B64A"/>
<stop offset="0.473958" stop-color="#FFE684"/>
<stop offset="1" stop-color="#CF9E4B"/>
</linearGradient>
</defs>
</svg>
