<svg width="44" height="18" viewBox="0 0 44 18" fill="none" xmlns="http://www.w3.org/2000/svg">
<path d="M34.7903 0.368243C34.4369 0.720387 34.4358 1.2923 34.7879 1.64578L40.9001 7.78121L8.74855 7.72041C8.2496 7.71946 7.8443 8.12323 7.84335 8.62219C7.84241 9.12114 8.24618 9.52644 8.74514 9.52739L40.8967 9.58819L34.7613 15.7005C34.414 16.0587 34.4228 16.6308 34.781 16.978C35.1305 17.3168 35.6856 17.3179 36.0364 16.9804L43.717 9.3288C44.0704 8.97666 44.0715 8.40475 43.7194 8.05127L36.0678 0.370659C35.7157 0.0172913 35.1438 0.0162096 34.7903 0.368243Z" fill="url(#paint0_linear_870_13232)"/>
<path d="M6.03668 8.61897C6.03574 9.11792 5.63043 9.52169 5.13148 9.52075L1.51752 9.51392C1.01857 9.51297 0.614798 9.10767 0.615742 8.60872C0.616685 8.10976 1.02199 7.70599 1.52094 7.70694L5.1349 7.71377C5.63385 7.71471 6.03762 8.12002 6.03668 8.61897Z" fill="url(#paint1_linear_870_13232)"/>
<defs>
<linearGradient id="paint0_linear_870_13232" x1="12.3305" y1="8.62521" x2="31.8554" y2="8.66214" gradientUnits="userSpaceOnUse">
<stop stop-color="#E2B64A"/>
<stop offset="0.473958" stop-color="#FFE684"/>
<stop offset="1" stop-color="#CF9E4B"/>
</linearGradient>
<linearGradient id="paint1_linear_870_13232" x1="1.28881" y1="8.60999" x2="4.21757" y2="8.61553" gradientUnits="userSpaceOnUse">
<stop stop-color="#E2B64A"/>
<stop offset="0.473958" stop-color="#FFE684"/>
<stop offset="1" stop-color="#CF9E4B"/>
</linearGradient>
</defs>
</svg>
