<svg width="44" height="18" viewBox="0 0 44 18" fill="none" xmlns="http://www.w3.org/2000/svg">
<path d="M9.22438 16.8962C9.57674 16.543 9.57619 15.9711 9.22315 15.6186L3.09341 9.50066L35.245 9.46979C35.744 9.46931 36.1481 9.06438 36.1477 8.56543C36.1472 8.06647 35.7423 7.66233 35.2433 7.6628L3.09167 7.69368L9.20966 1.56393C9.55591 1.20469 9.54554 0.632675 9.18629 0.286418C8.83587 -0.0513777 8.28078 -0.0508447 7.93089 0.287623L0.272131 7.96111C-0.0802309 8.31426 -0.0796818 8.88617 0.273357 9.23864L7.94684 16.8974C8.29999 17.2498 8.8719 17.2492 9.22438 16.8962Z" fill="url(#paint0_linear_870_13229)"/>
<path d="M37.9537 8.56358C37.9533 8.06463 38.3574 7.6597 38.8564 7.65923L42.4703 7.65576C42.9693 7.65528 43.3742 8.05943 43.3747 8.55838C43.3752 9.05733 42.971 9.46226 42.4721 9.46274L38.8581 9.46621C38.3592 9.46669 37.9542 9.06254 37.9537 8.56358Z" fill="url(#paint1_linear_870_13229)"/>
<defs>
<linearGradient id="paint0_linear_870_13229" x1="31.6606" y1="8.5752" x2="12.1356" y2="8.59395" gradientUnits="userSpaceOnUse">
<stop stop-color="#E2B64A"/>
<stop offset="0.473958" stop-color="#FFE684"/>
<stop offset="1" stop-color="#CF9E4B"/>
</linearGradient>
<linearGradient id="paint1_linear_870_13229" x1="42.7016" y1="8.55903" x2="39.7729" y2="8.56184" gradientUnits="userSpaceOnUse">
<stop stop-color="#E2B64A"/>
<stop offset="0.473958" stop-color="#FFE684"/>
<stop offset="1" stop-color="#CF9E4B"/>
</linearGradient>
</defs>
</svg>
