<svg width="58" height="45" viewBox="0 0 58 45" fill="none" xmlns="http://www.w3.org/2000/svg">
<g clip-path="url(#clip0_956_12936)">
<path style="mix-blend-mode:screen" d="M58 23.4878C58 23.7805 45.0391 24 29.0147 24C12.9903 24 0 23.7805 0 23.4878C0 23.2195 12.9903 23 29.0147 23C45.0391 23 58 23.2195 58 23.4878Z" fill="url(#paint0_radial_956_12936)" fill-opacity="0.5"/>
<path style="mix-blend-mode:screen" d="M48.3073 23.1937C48.3073 23.3705 39.6716 23.5179 29.0316 23.5179C18.3916 23.5179 9.75583 23.3705 9.75583 23.1937C9.75583 23.0463 18.3916 22.8989 29.0316 22.8989C39.6716 22.8989 48.3073 23.0463 48.3073 23.1937Z" fill="url(#paint1_radial_956_12936)" fill-opacity="0.5"/>
<path style="mix-blend-mode:screen" d="M41.027 35.1891C40.7027 35.5133 35.0733 30.4144 28.4417 23.7828C21.8102 17.1512 16.7112 11.5218 17.0354 11.227C17.3302 10.9028 22.9596 16.0018 29.5912 22.6333C36.2228 29.2649 41.3217 34.8944 41.027 35.1891Z" fill="url(#paint2_radial_956_12936)" fill-opacity="0.5"/>
<path style="mix-blend-mode:screen" d="M36.9893 31.1808C36.8125 31.3281 33.1283 27.8797 28.7367 23.4882C24.3451 19.0966 20.8967 15.4124 21.0441 15.2355C21.2209 15.0882 24.9051 18.5071 29.2967 22.9282C33.7177 27.3197 37.1367 31.0039 36.9893 31.1808Z" fill="url(#paint3_radial_956_12936)" fill-opacity="0.5"/>
<path style="mix-blend-mode:screen" d="M29.031 45C28.8247 45 28.6773 34.937 28.7068 22.4851C28.7068 10.063 28.8247 0 29.031 0C29.2078 0 29.3552 10.063 29.3552 22.4851C29.3552 34.937 29.2078 45 29.031 45Z" fill="url(#paint4_radial_956_12936)" fill-opacity="0.5"/>
<path style="mix-blend-mode:screen" d="M29.0308 37.4452C28.9424 37.4452 28.854 30.7564 28.854 22.485C28.854 14.2435 28.9424 7.55469 29.0308 7.55469C29.1193 7.55469 29.1782 14.2435 29.1782 22.485C29.1782 30.7564 29.1193 37.4452 29.0308 37.4452Z" fill="url(#paint5_radial_956_12936)" fill-opacity="0.5"/>
<path style="mix-blend-mode:screen" d="M24.9934 33.4211C24.8166 33.3622 26.4671 28.7053 28.6776 23.0759C30.8881 17.4169 32.8629 12.9075 33.0397 12.9959C33.2166 13.0549 31.566 17.6822 29.3555 23.3411C27.145 28.9706 25.1997 33.5095 24.9934 33.4211Z" fill="url(#paint6_radial_956_12936)" fill-opacity="0.5"/>
<path style="mix-blend-mode:screen" d="M26.3485 30.0021C26.2601 29.9726 27.3801 26.8779 28.8538 23.1348C30.3275 19.3916 31.5948 16.3853 31.6833 16.4148C31.7717 16.4442 30.6517 19.5095 29.178 23.2821C27.7043 27.0253 26.4369 30.0316 26.3485 30.0021Z" fill="url(#paint7_radial_956_12936)" fill-opacity="0.5"/>
<path style="mix-blend-mode:screen" d="M24.64 13.1429C24.8168 13.0545 26.9389 17.505 29.3558 23.046C31.7726 28.6165 33.6 33.185 33.3936 33.2734C33.2168 33.3618 31.1242 28.9113 28.6779 23.3408C26.261 17.7997 24.4337 13.2018 24.64 13.1429Z" fill="url(#paint8_radial_956_12936)" fill-opacity="0.5"/>
<path style="mix-blend-mode:screen" d="M26.1135 16.5326C26.2019 16.4737 27.5872 19.4505 29.1788 23.1347C30.7998 26.8189 32.0377 29.8547 31.9198 29.8841C31.8314 29.9431 30.4461 26.9663 28.8546 23.2821C27.2335 19.5979 26.0251 16.5621 26.1135 16.5326Z" fill="url(#paint9_radial_956_12936)" fill-opacity="0.5"/>
<path style="mix-blend-mode:screen" d="M27.6163 15.2946C27.8226 15.2651 28.5889 18.7725 29.3847 23.1346C30.151 27.4967 30.6226 31.063 30.4163 31.122C30.21 31.1514 29.4437 27.6441 28.6479 23.282C27.8816 18.8904 27.41 15.3241 27.6163 15.2946Z" fill="url(#paint10_radial_956_12936)" fill-opacity="0.5"/>
<path style="mix-blend-mode:screen" d="M28.0878 17.9473C28.1762 17.9473 28.6773 20.2757 29.2078 23.1641C29.7088 26.082 30.0625 28.4399 29.9446 28.4399C29.8562 28.4693 29.3552 26.1409 28.8246 23.223C28.3236 20.3346 27.9994 17.9767 28.0878 17.9473Z" fill="url(#paint11_radial_956_12936)" fill-opacity="0.5"/>
<path style="mix-blend-mode:screen" d="M33.6298 16.6212C33.7772 16.7391 31.8614 19.7749 29.3267 23.4001C26.7625 27.0549 24.5814 29.9138 24.4341 29.7959C24.2572 29.678 26.173 26.6422 28.7077 22.9875C31.2719 19.3622 33.453 16.5033 33.6298 16.6212Z" fill="url(#paint12_radial_956_12936)" fill-opacity="0.5"/>
<path style="mix-blend-mode:screen" d="M32.068 18.8319C32.1565 18.8908 30.8596 20.895 29.1796 23.3119C27.4702 25.7287 26.0554 27.6445 25.967 27.5856C25.8786 27.5266 27.1754 25.5224 28.8554 23.1056C30.5649 20.6887 31.9796 18.7729 32.068 18.8319Z" fill="url(#paint13_radial_956_12936)" fill-opacity="0.5"/>
<path style="mix-blend-mode:screen" d="M18.9509 27.585C18.8625 27.4081 23.313 25.286 28.8836 22.8692C34.4246 20.4524 39.0225 18.625 39.0814 18.8313C39.1698 19.0082 34.7193 21.1008 29.1783 23.5471C23.6078 25.9639 19.0394 27.7913 18.9509 27.585Z" fill="url(#paint14_radial_956_12936)" fill-opacity="0.5"/>
<path style="mix-blend-mode:screen" d="M22.3403 26.1114C22.2814 26.023 25.2582 24.6378 28.9424 23.0462C32.6266 21.4251 35.6624 20.1872 35.6919 20.3051C35.7508 20.3936 32.774 21.7788 29.0898 23.3704C25.4056 24.9914 22.3698 26.1999 22.3403 26.1114Z" fill="url(#paint15_radial_956_12936)" fill-opacity="0.5"/>
<path style="mix-blend-mode:screen" d="M18.8042 19.1853C18.8632 19.0085 23.4905 20.659 29.1495 22.8695C34.8084 25.0801 39.3179 27.0548 39.2294 27.2316C39.1705 27.4085 34.5431 25.758 28.8842 23.5474C23.2547 21.3369 18.7158 19.3622 18.8042 19.1853Z" fill="url(#paint16_radial_956_12936)" fill-opacity="0.5"/>
<path style="mix-blend-mode:screen" d="M22.2232 20.541C22.2822 20.4526 25.3474 21.5726 29.0906 23.0463C32.8337 24.52 35.84 25.7873 35.8105 25.8758C35.7811 25.9642 32.7158 24.8442 28.9432 23.3705C25.2 21.8968 22.1937 20.6294 22.2232 20.541Z" fill="url(#paint17_radial_956_12936)" fill-opacity="0.5"/>
<path style="mix-blend-mode:screen" d="M19.7481 17.2989C19.866 17.122 24.1102 19.6273 29.2091 22.8988C34.3375 26.1704 38.3754 28.9409 38.287 29.1178C38.1691 29.2946 33.9249 26.7894 28.8259 23.5178C23.6975 20.2462 19.6596 17.4757 19.7481 17.2989Z" fill="url(#paint18_radial_956_12936)" fill-opacity="0.5"/>
<path style="mix-blend-mode:screen" d="M22.8722 19.2738C22.9311 19.1854 25.7311 20.8948 29.1206 23.0464C32.5101 25.2275 35.2216 27.0548 35.1627 27.1433C35.1037 27.2317 32.3037 25.5222 28.9143 23.3706C25.5248 21.1896 22.8132 19.3622 22.8722 19.2738Z" fill="url(#paint19_radial_956_12936)" fill-opacity="0.5"/>
<path style="mix-blend-mode:screen" d="M39.7608 20.8355C39.7903 21.0418 35.0155 22.2502 29.0913 23.5471C23.1671 24.8734 18.3334 25.7576 18.304 25.5807C18.245 25.3744 23.0198 24.166 28.944 22.8397C34.8682 21.5428 39.7018 20.6586 39.7608 20.8355Z" fill="url(#paint20_radial_956_12936)" fill-opacity="0.5"/>
<path style="mix-blend-mode:screen" d="M36.1355 21.6315C36.165 21.7493 32.9818 22.5157 29.0619 23.3704C25.1124 24.2546 21.9292 24.8736 21.8998 24.7851C21.8703 24.6672 25.0534 23.9009 28.9734 23.0167C32.9229 22.162 36.1061 21.543 36.1355 21.6315Z" fill="url(#paint21_radial_956_12936)" fill-opacity="0.5"/>
<path style="mix-blend-mode:screen" d="M14.4723 37.7534C14.0891 37.3703 20.2786 30.5619 28.3249 22.5156C36.3712 14.4693 43.209 8.25034 43.5922 8.6335C43.9754 9.04613 37.7564 15.8545 29.7101 23.9008C21.6638 31.9471 14.8554 38.1366 14.4723 37.7534Z" fill="url(#paint22_radial_956_12936)" fill-opacity="0.5"/>
<path style="mix-blend-mode:screen" d="M19.3656 32.8606C19.1592 32.6838 23.3445 28.2038 28.6792 22.8396C34.0139 17.5049 38.4939 13.3491 38.7003 13.5259C38.8771 13.7323 34.7213 18.2123 29.3866 23.547C24.0224 28.9112 19.5424 33.067 19.3656 32.8606Z" fill="url(#paint23_radial_956_12936)" fill-opacity="0.5"/>
<g filter="url(#filter0_f_956_12936)">
<path d="M51.0454 18.8539C48.9355 6.88819 37.525 -1.10152 25.5593 1.00835C13.5937 3.11822 5.60396 14.5287 7.71383 26.4944C9.8237 38.4601 21.2342 46.4498 33.1999 44.3399C45.1655 42.23 53.1552 30.8195 51.0454 18.8539Z" fill="url(#paint24_radial_956_12936)"/>
</g>
</g>
<defs>
<filter id="filter0_f_956_12936" x="-5.62408" y="-12.3296" width="70.0074" height="70.0073" filterUnits="userSpaceOnUse" color-interpolation-filters="sRGB">
<feFlood flood-opacity="0" result="BackgroundImageFix"/>
<feBlend mode="normal" in="SourceGraphic" in2="BackgroundImageFix" result="shape"/>
<feGaussianBlur stdDeviation="6.5" result="effect1_foregroundBlur_956_12936"/>
</filter>
<radialGradient id="paint0_radial_956_12936" cx="0" cy="0" r="1" gradientUnits="userSpaceOnUse" gradientTransform="translate(29.0044 23.498) scale(29.0156 24.0251)">
<stop stop-color="white"/>
<stop offset="0.109" stop-color="#FFB700"/>
<stop offset="0.131" stop-color="#FFF5F0"/>
<stop offset="1"/>
</radialGradient>
<radialGradient id="paint1_radial_956_12936" cx="0" cy="0" r="1" gradientUnits="userSpaceOnUse" gradientTransform="translate(29.021 23.2063) scale(19.2758 19.2755)">
<stop stop-color="white"/>
<stop offset="0.259" stop-color="#FFB700"/>
<stop offset="0.313" stop-color="white"/>
<stop offset="1"/>
</radialGradient>
<radialGradient id="paint2_radial_956_12936" cx="0" cy="0" r="1" gradientUnits="userSpaceOnUse" gradientTransform="translate(29.0206 23.2063) rotate(45) scale(16.9608)">
<stop stop-color="white"/>
<stop offset="0.2" stop-color="#FFB700"/>
<stop offset="0.222" stop-color="#FFF5F0"/>
<stop offset="1"/>
</radialGradient>
<radialGradient id="paint3_radial_956_12936" cx="0" cy="0" r="1" gradientUnits="userSpaceOnUse" gradientTransform="translate(29.0199 23.2061) rotate(45) scale(11.265)">
<stop stop-color="white"/>
<stop offset="0.2" stop-color="#FFB700"/>
<stop offset="0.222" stop-color="#FFF5F0"/>
<stop offset="1"/>
</radialGradient>
<radialGradient id="paint4_radial_956_12936" cx="0" cy="0" r="1" gradientUnits="userSpaceOnUse" gradientTransform="translate(29.0204 22.4979) rotate(90) scale(22.4922 22.2005)">
<stop stop-color="white"/>
<stop offset="0.259" stop-color="#FFB700"/>
<stop offset="0.313" stop-color="#FFF5F0"/>
<stop offset="1"/>
</radialGradient>
<radialGradient id="paint5_radial_956_12936" cx="0" cy="0" r="1" gradientUnits="userSpaceOnUse" gradientTransform="translate(29.0196 22.4973) rotate(90) scale(14.9668 14.7729)">
<stop stop-color="white"/>
<stop offset="0.259" stop-color="#FFF5F0"/>
<stop offset="0.313" stop-color="#FFF5F0"/>
<stop offset="1"/>
</radialGradient>
<radialGradient id="paint6_radial_956_12936" cx="0" cy="0" r="1" gradientUnits="userSpaceOnUse" gradientTransform="translate(29.0204 23.2062) rotate(111.461) scale(10.9874)">
<stop stop-color="white"/>
<stop offset="0.259" stop-color="#FFB700"/>
<stop offset="0.313" stop-color="#FFF5F0"/>
<stop offset="1"/>
</radialGradient>
<radialGradient id="paint7_radial_956_12936" cx="0" cy="0" r="1" gradientUnits="userSpaceOnUse" gradientTransform="translate(29.0194 23.2061) rotate(111.459) scale(7.29366 7.29366)">
<stop stop-color="white"/>
<stop offset="0.259" stop-color="#FFF5F0"/>
<stop offset="0.313" stop-color="#FFF5F0"/>
<stop offset="1"/>
</radialGradient>
<radialGradient id="paint8_radial_956_12936" cx="0" cy="0" r="1" gradientUnits="userSpaceOnUse" gradientTransform="translate(29.0198 23.2052) rotate(-113.54) scale(10.9892 10.9892)">
<stop stop-color="white"/>
<stop offset="0.259" stop-color="#FFB700"/>
<stop offset="0.313" stop-color="#FFF5F0"/>
<stop offset="1"/>
</radialGradient>
<radialGradient id="paint9_radial_956_12936" cx="0" cy="0" r="1" gradientUnits="userSpaceOnUse" gradientTransform="translate(29.019 23.206) rotate(-113.541) scale(7.29306 7.29306)">
<stop stop-color="white"/>
<stop offset="0.259" stop-color="#FFF5F0"/>
<stop offset="0.313" stop-color="#FFF5F0"/>
<stop offset="1"/>
</radialGradient>
<radialGradient id="paint10_radial_956_12936" cx="0" cy="0" r="1" gradientUnits="userSpaceOnUse" gradientTransform="translate(29.0186 23.2056) rotate(-100.057) scale(8.03029)">
<stop stop-color="white"/>
<stop offset="0.259" stop-color="#FFB700"/>
<stop offset="0.313" stop-color="#FFF5F0"/>
<stop offset="1"/>
</radialGradient>
<radialGradient id="paint11_radial_956_12936" cx="0" cy="0" r="1" gradientUnits="userSpaceOnUse" gradientTransform="translate(29.0189 23.2057) rotate(-100.056) scale(5.32576 5.32575)">
<stop stop-color="white"/>
<stop offset="0.259" stop-color="#FFB700"/>
<stop offset="0.313" stop-color="#FFF5F0"/>
<stop offset="1"/>
</radialGradient>
<radialGradient id="paint12_radial_956_12936" cx="0" cy="0" r="1" gradientUnits="userSpaceOnUse" gradientTransform="translate(29.0196 23.2068) rotate(-55.0623) scale(8.02658 8.02657)">
<stop stop-color="white"/>
<stop offset="0.259" stop-color="#FFB700"/>
<stop offset="0.313" stop-color="#FF9100"/>
<stop offset="1"/>
</radialGradient>
<radialGradient id="paint13_radial_956_12936" cx="0" cy="0" r="1" gradientUnits="userSpaceOnUse" gradientTransform="translate(29.0202 23.2067) rotate(-55.0552) scale(5.3273)">
<stop stop-color="white"/>
<stop offset="0.259" stop-color="#FFB700"/>
<stop offset="0.313" stop-color="#FF9100"/>
<stop offset="1"/>
</radialGradient>
<radialGradient id="paint14_radial_956_12936" cx="0" cy="0" r="1" gradientUnits="userSpaceOnUse" gradientTransform="translate(29.0188 23.207) rotate(156.46) scale(10.9911 10.9911)">
<stop stop-color="white"/>
<stop offset="0.259" stop-color="#FFF5F0"/>
<stop offset="0.313" stop-color="#FFF5F0"/>
<stop offset="1"/>
</radialGradient>
<radialGradient id="paint15_radial_956_12936" cx="0" cy="0" r="1" gradientUnits="userSpaceOnUse" gradientTransform="translate(29.0188 23.2065) rotate(156.459) scale(7.30494 7.30494)">
<stop stop-color="white"/>
<stop offset="0.259" stop-color="#FFF5F0"/>
<stop offset="0.313" stop-color="#FFF5F0"/>
<stop offset="1"/>
</radialGradient>
<radialGradient id="paint16_radial_956_12936" cx="0" cy="0" r="1" gradientUnits="userSpaceOnUse" gradientTransform="translate(29.0198 23.207) rotate(-158.539) scale(10.9782)">
<stop stop-color="white"/>
<stop offset="0.333333" stop-color="#FFF5F0"/>
<stop offset="0.666667" stop-color="#FFF5F0"/>
<stop offset="1"/>
</radialGradient>
<radialGradient id="paint17_radial_956_12936" cx="0" cy="0" r="1" gradientUnits="userSpaceOnUse" gradientTransform="translate(29.0192 23.2069) rotate(-158.543) scale(7.29169 7.29168)">
<stop stop-color="white"/>
<stop offset="0.259" stop-color="#FFF5F0"/>
<stop offset="0.313" stop-color="#FFF5F0"/>
<stop offset="1"/>
</radialGradient>
<radialGradient id="paint18_radial_956_12936" cx="0" cy="0" r="1" gradientUnits="userSpaceOnUse" gradientTransform="translate(29.0205 23.2068) rotate(-147.434) scale(10.982)">
<stop stop-color="white"/>
<stop offset="0.259" stop-color="#FFB700"/>
<stop offset="0.313" stop-color="#FFF5F0"/>
<stop offset="1"/>
</radialGradient>
<radialGradient id="paint19_radial_956_12936" cx="0" cy="0" r="1" gradientUnits="userSpaceOnUse" gradientTransform="translate(29.0204 23.207) rotate(-147.43) scale(7.29167)">
<stop stop-color="white"/>
<stop offset="0.259" stop-color="#FFF5F0"/>
<stop offset="0.313" stop-color="#FFF5F0"/>
<stop offset="1"/>
</radialGradient>
<radialGradient id="paint20_radial_956_12936" cx="0" cy="0" r="1" gradientUnits="userSpaceOnUse" gradientTransform="translate(29.0194 23.2057) rotate(-12.4307) scale(10.9811 10.9811)">
<stop stop-color="white"/>
<stop offset="0.259" stop-color="#FFB700"/>
<stop offset="0.313" stop-color="#FFF5F0"/>
<stop offset="1"/>
</radialGradient>
<radialGradient id="paint21_radial_956_12936" cx="0" cy="0" r="1" gradientUnits="userSpaceOnUse" gradientTransform="translate(29.0191 23.2062) rotate(-12.4321) scale(7.29301 7.29302)">
<stop stop-color="white"/>
<stop offset="0.259" stop-color="#FFB700"/>
<stop offset="0.313" stop-color="#FFF5F0" stop-opacity="0.32"/>
<stop offset="1"/>
</radialGradient>
<radialGradient id="paint22_radial_956_12936" cx="0" cy="0" r="1" gradientUnits="userSpaceOnUse" gradientTransform="translate(29.0213 23.2064) rotate(135) scale(20.5847)">
<stop stop-color="white"/>
<stop offset="0.152" stop-color="#FFB700"/>
<stop offset="0.174" stop-color="#FFF5F0"/>
<stop offset="1"/>
</radialGradient>
<radialGradient id="paint23_radial_956_12936" cx="0" cy="0" r="1" gradientUnits="userSpaceOnUse" gradientTransform="translate(29.022 23.206) rotate(135) scale(13.6738)">
<stop stop-color="white"/>
<stop offset="0.152" stop-color="#FFF5F0"/>
<stop offset="0.174" stop-color="#FFF5F0"/>
<stop offset="1"/>
</radialGradient>
<radialGradient id="paint24_radial_956_12936" cx="0" cy="0" r="1" gradientUnits="userSpaceOnUse" gradientTransform="translate(29.3793 22.6741) rotate(37.8007) scale(22.0036)">
<stop offset="0.0294" stop-color="white"/>
<stop offset="0.0335" stop-color="#FFFEFD" stop-opacity="0.9909"/>
<stop offset="0.1761" stop-color="#FFEECA" stop-opacity="0.6747"/>
<stop offset="0.2461" stop-color="#FFE7B6" stop-opacity="0.5197"/>
<stop offset="0.2522" stop-color="#FEE6B6" stop-opacity="0.5132"/>
<stop offset="0.341" stop-color="#F7D9BA" stop-opacity="0.418"/>
<stop offset="0.4598" stop-color="#F3D2BC" stop-opacity="0.2908"/>
<stop offset="0.7313" stop-color="#F2D0BD" stop-opacity="0"/>
</radialGradient>
<clipPath id="clip0_956_12936">
<rect width="58" height="45" fill="white"/>
</clipPath>
</defs>
</svg>
