<svg width="25" height="20" viewBox="0 0 25 20" fill="none" xmlns="http://www.w3.org/2000/svg">
<path d="M15.3448 9.69314C15.4128 9.6931 15.4793 9.67605 15.5359 9.64413C15.5925 9.61221 15.6365 9.56686 15.6625 9.51381C15.6885 9.46076 15.6953 9.4024 15.682 9.3461C15.6687 9.2898 15.6359 9.23809 15.5878 9.19751C15.5397 9.15693 15.4783 9.1293 15.4116 9.11811C15.3449 9.10693 15.2757 9.11269 15.2128 9.13466C15.1499 9.15664 15.0962 9.19385 15.0584 9.24158C15.0206 9.28932 15.0004 9.34544 15.0004 9.40284C15.0006 9.47983 15.0369 9.55363 15.1015 9.60805C15.166 9.66246 15.2535 9.69307 15.3448 9.69314Z" fill="url(#paint0_linear_866_12752)"/>
<path d="M15.3242 13.4077C15.2562 13.4078 15.1897 13.4248 15.1331 13.4567C15.0766 13.4887 15.0325 13.534 15.0065 13.5871C14.9805 13.6401 14.9737 13.6985 14.987 13.7548C15.0003 13.8111 15.0331 13.8628 15.0812 13.9034C15.1294 13.9439 15.1907 13.9716 15.2574 13.9827C15.3242 13.9939 15.3934 13.9882 15.4562 13.9662C15.5191 13.9442 15.5728 13.907 15.6106 13.8592C15.6484 13.8115 15.6686 13.7554 15.6686 13.698C15.6684 13.621 15.6321 13.5472 15.5676 13.4928C15.503 13.4384 15.4155 13.4078 15.3242 13.4077Z" fill="url(#paint1_linear_866_12752)"/>
<path d="M16.4551 11.866C16.5231 11.866 16.5896 11.8489 16.6462 11.817C16.7027 11.7851 16.7468 11.7397 16.7728 11.6866C16.7988 11.6336 16.8056 11.5752 16.7923 11.5189C16.779 11.4626 16.7462 11.4109 16.6981 11.3703C16.6499 11.3298 16.5886 11.3021 16.5219 11.291C16.4551 11.2798 16.3859 11.2855 16.3231 11.3075C16.2602 11.3295 16.2065 11.3667 16.1687 11.4145C16.1309 11.4622 16.1107 11.5183 16.1107 11.5757C16.1109 11.6527 16.1472 11.7265 16.2117 11.7809C16.2763 11.8353 16.3638 11.8659 16.4551 11.866Z" fill="url(#paint2_linear_866_12752)"/>
<path d="M10.0069 13.491C9.93881 13.491 9.8723 13.5081 9.81574 13.54C9.75918 13.5719 9.71511 13.6173 9.6891 13.6703C9.66308 13.7233 9.6563 13.7817 9.6696 13.838C9.68291 13.8943 9.7157 13.946 9.76383 13.9866C9.81197 14.0272 9.87328 14.0548 9.94003 14.066C10.0068 14.0772 10.076 14.0714 10.1388 14.0494C10.2017 14.0275 10.2554 13.9903 10.2932 13.9425C10.331 13.8948 10.3512 13.8387 10.3512 13.7813C10.3511 13.7043 10.3147 13.6305 10.2502 13.5761C10.1856 13.5216 10.0981 13.491 10.0069 13.491Z" fill="url(#paint3_linear_866_12752)"/>
<path d="M12.7647 14.3972C12.6966 14.3973 12.6301 14.4143 12.5736 14.4463C12.517 14.4782 12.473 14.5235 12.4469 14.5766C12.4209 14.6296 12.4142 14.688 12.4275 14.7443C12.4408 14.8006 12.4736 14.8523 12.5217 14.8929C12.5699 14.9335 12.6312 14.9611 12.698 14.9723C12.7647 14.9834 12.8339 14.9777 12.8967 14.9557C12.9596 14.9337 13.0133 14.8965 13.0511 14.8487C13.0889 14.801 13.1091 14.7449 13.1091 14.6875C13.1089 14.6105 13.0726 14.5367 13.008 14.4823C12.9435 14.4278 12.856 14.3973 12.7647 14.3972Z" fill="url(#paint4_linear_866_12752)"/>
<path d="M10.1724 3.52905H15.1891V4.80857H10.1724V3.52905Z" fill="url(#paint5_linear_866_12752)"/>
<path d="M9.07438 11.2854C9.00633 11.2854 8.93982 11.3025 8.88327 11.3344C8.82671 11.3664 8.78265 11.4117 8.75665 11.4648C8.73064 11.5178 8.72387 11.5762 8.73718 11.6325C8.75048 11.6888 8.78328 11.7405 8.83142 11.781C8.87955 11.8216 8.94087 11.8492 9.00762 11.8604C9.07436 11.8716 9.14354 11.8659 9.2064 11.8439C9.26927 11.8219 9.32299 11.7847 9.36079 11.737C9.39859 11.6892 9.41877 11.6331 9.41877 11.5757C9.41864 11.4987 9.3823 11.4249 9.31774 11.3705C9.25317 11.316 9.16565 11.2854 9.07438 11.2854Z" fill="url(#paint6_linear_866_12752)"/>
<path d="M11.9031 2.07642H13.4581V3.06712H11.9031V2.07642Z" fill="url(#paint7_linear_866_12752)"/>
<path d="M12.6806 6.47038C13.0134 6.47039 13.3456 6.49357 13.6739 6.53967L14.7946 5.27026H10.5667L11.6875 6.53967C12.0157 6.49356 12.3479 6.47039 12.6806 6.47038Z" fill="url(#paint8_linear_866_12752)"/>
<path d="M14.2507 11.5311C14.2524 10.8213 13.5713 10.2447 12.7294 10.2433C11.8875 10.2418 11.2036 10.8161 11.202 11.526C11.2003 12.2358 11.8814 12.8124 12.7233 12.8139C13.5652 12.8153 14.249 12.241 14.2507 11.5311Z" fill="url(#paint9_linear_866_12752)"/>
<path d="M18.1675 19.4559C18.1691 19.6007 18.2383 19.7391 18.3603 19.8411C18.4822 19.943 18.6469 20.0002 18.8186 20.0002C18.9902 20.0002 19.1549 19.943 19.2769 19.8411C19.3988 19.7391 19.4681 19.6007 19.4697 19.4559V18.9683H18.1675V19.4559Z" fill="url(#paint10_linear_866_12752)"/>
<path d="M21.5486 16.725L19.9619 9.91851C19.9615 9.91689 19.9611 9.91518 19.9608 9.91357C19.8998 9.61796 19.6716 9.31958 19.2992 9.31958H18.0949C18.5451 10.095 18.7539 10.9543 18.7016 11.8165C18.6494 12.6788 18.3377 13.5156 17.7961 14.2482C17.2545 14.9808 16.5007 15.585 15.6057 16.0039C14.7108 16.4228 13.7041 16.6426 12.6806 16.6426C11.6572 16.6426 10.6505 16.4228 9.75558 16.0039C8.86063 15.585 8.10683 14.9808 7.56519 14.2482C7.02356 13.5156 6.71192 12.6788 6.65965 11.8165C6.60737 10.9543 6.81617 10.095 7.26637 9.31958H5.98303C5.80877 9.3197 5.64169 9.37812 5.51842 9.48203C5.39516 9.58594 5.32578 9.72684 5.3255 9.87384C5.32549 9.88669 5.32421 9.89951 5.32167 9.91218L3.94267 16.8305C3.8986 17.0354 3.90841 17.246 3.97141 17.4473C4.03441 17.6486 4.14906 17.8358 4.30725 17.9956C4.46545 18.1554 4.66333 18.284 4.88691 18.3722C5.11048 18.4604 5.3543 18.5062 5.60113 18.5061H19.9177C20.1741 18.5061 20.4271 18.4568 20.6574 18.3618C20.8878 18.2669 21.0895 18.1289 21.2471 17.9582C21.4046 17.7876 21.514 17.5889 21.5668 17.3773C21.6196 17.1656 21.6145 16.9466 21.5518 16.7369C21.5506 16.7329 21.5495 16.7289 21.5486 16.725Z" fill="url(#paint11_linear_866_12752)"/>
<path d="M5.61707 19.4559C5.61864 19.6007 5.68793 19.7391 5.80986 19.8411C5.93179 19.943 6.0965 20.0002 6.26816 20.0002C6.43981 20.0002 6.60452 19.943 6.72645 19.8411C6.84838 19.7391 6.91767 19.6007 6.91925 19.4559V18.9683H5.61707V19.4559Z" fill="url(#paint12_linear_866_12752)"/>
<path d="M12.7647 8.75418C12.8327 8.75414 12.8992 8.73708 12.9558 8.70516C13.0124 8.67324 13.0564 8.62789 13.0825 8.57484C13.1085 8.5218 13.1153 8.46343 13.1019 8.40713C13.0886 8.35083 13.0559 8.29912 13.0077 8.25854C12.9596 8.21796 12.8983 8.19033 12.8315 8.17915C12.7648 8.16796 12.6956 8.17372 12.6327 8.1957C12.5699 8.21768 12.5161 8.25488 12.4783 8.30262C12.4405 8.35035 12.4203 8.40647 12.4203 8.46388C12.4205 8.54087 12.4568 8.61466 12.5214 8.66908C12.5859 8.7235 12.6734 8.7541 12.7647 8.75418Z" fill="url(#paint13_linear_866_12752)"/>
<path d="M7.19928 11.5543C7.1988 12.469 7.51987 13.3632 8.12188 14.1238C8.72389 14.8845 9.57979 15.4775 10.5813 15.8278C11.5829 16.1781 12.6851 16.2699 13.7485 16.0918C14.8119 15.9136 15.7888 15.4733 16.5557 14.8267C17.3225 14.1801 17.8448 13.3562 18.0565 12.4592C18.2682 11.5622 18.1597 10.6324 17.7449 9.78731C17.3301 8.94227 16.6276 8.21998 15.7261 7.7118C14.8247 7.20362 13.7648 6.93237 12.6806 6.93237C11.2277 6.93346 9.8346 7.4207 8.807 8.28719C7.7794 9.15368 7.20121 10.3287 7.19928 11.5543ZM8.18247 11.5757C8.18241 11.4268 8.23466 11.2813 8.33263 11.1576C8.4306 11.0338 8.56988 10.9373 8.73285 10.8803C8.89583 10.8233 9.07518 10.8084 9.24822 10.8374C9.42126 10.8664 9.58021 10.9381 9.70498 11.0433C9.82975 11.1485 9.91472 11.2826 9.94916 11.4285C9.98359 11.5745 9.96594 11.7258 9.89843 11.8633C9.83093 12.0008 9.7166 12.1183 9.56991 12.201C9.42322 12.2837 9.25076 12.3278 9.07434 12.3278C8.83792 12.3276 8.61125 12.2483 8.44405 12.1073C8.27685 11.9663 8.18278 11.7751 8.18247 11.5757ZM10.0068 14.5335C9.83049 14.5335 9.65812 14.4894 9.51152 14.4067C9.36492 14.324 9.25066 14.2065 9.18321 14.0691C9.11576 13.9316 9.09813 13.7804 9.13256 13.6345C9.16699 13.4886 9.25193 13.3546 9.37664 13.2494C9.50134 13.1442 9.66022 13.0726 9.83318 13.0436C10.0061 13.0146 10.1854 13.0295 10.3483 13.0865C10.5112 13.1434 10.6505 13.2398 10.7484 13.3635C10.8464 13.4872 10.8987 13.6326 10.8987 13.7814C10.8984 13.9808 10.8043 14.172 10.6371 14.313C10.4699 14.454 10.2432 14.5333 10.0068 14.5335ZM12.7647 15.4396C12.5883 15.4396 12.416 15.3954 12.2694 15.3127C12.1228 15.2301 12.0085 15.1126 11.9411 14.9751C11.8736 14.8377 11.856 14.6865 11.8905 14.5406C11.9249 14.3947 12.0098 14.2607 12.1345 14.1555C12.2593 14.0503 12.4181 13.9787 12.5911 13.9497C12.764 13.9207 12.9433 13.9356 13.1062 13.9925C13.2691 14.0495 13.4084 14.1459 13.5063 14.2696C13.6043 14.3933 13.6566 14.5387 13.6566 14.6874C13.6563 14.8869 13.5622 15.0781 13.395 15.2191C13.2278 15.3601 13.0011 15.4394 12.7647 15.4396ZM15.3242 14.4503C15.1478 14.4503 14.9755 14.4061 14.8289 14.3235C14.6823 14.2408 14.568 14.1233 14.5006 13.9858C14.4331 13.8484 14.4155 13.6972 14.4499 13.5513C14.4843 13.4054 14.5693 13.2714 14.694 13.1662C14.8187 13.061 14.9776 12.9894 15.1505 12.9604C15.3235 12.9314 15.5028 12.9463 15.6657 13.0032C15.8286 13.0602 15.9678 13.1566 16.0658 13.2803C16.1638 13.404 16.2161 13.5494 16.2161 13.6981C16.2157 13.8976 16.1217 14.0888 15.9545 14.2298C15.7873 14.3708 15.5606 14.4501 15.3242 14.4503ZM17.3469 11.5757C17.347 11.7245 17.2947 11.87 17.1967 11.9938C17.0988 12.1175 16.9595 12.214 16.7965 12.271C16.6335 12.328 16.4542 12.3429 16.2812 12.3139C16.1081 12.2849 15.9492 12.2132 15.8244 12.108C15.6996 12.0028 15.6147 11.8687 15.5802 11.7228C15.5458 11.5768 15.5634 11.4255 15.6309 11.288C15.6984 11.1505 15.8128 11.033 15.9594 10.9503C16.1061 10.8676 16.2786 10.8235 16.455 10.8235C16.6914 10.8237 16.9181 10.903 17.0853 11.044C17.2525 11.185 17.3466 11.3762 17.3469 11.5757ZM15.3448 8.65073C15.5211 8.65077 15.6935 8.69491 15.8401 8.77758C15.9867 8.86026 16.1009 8.97774 16.1684 9.11519C16.2358 9.25264 16.2535 9.40387 16.219 9.54977C16.1846 9.69566 16.0997 9.82967 15.975 9.93485C15.8503 10.04 15.6914 10.1116 15.5184 10.1407C15.3455 10.1697 15.1662 10.1548 15.0033 10.0978C14.8404 10.0409 14.7011 9.94447 14.6032 9.82078C14.5052 9.69709 14.4529 9.55167 14.4529 9.40291C14.4532 9.20347 14.5473 9.01227 14.7145 8.87126C14.8817 8.73024 15.1083 8.65094 15.3448 8.65073ZM12.7647 7.71167C12.941 7.7117 13.1134 7.75585 13.26 7.83852C13.4066 7.9212 13.5208 8.03868 13.5883 8.17613C13.6557 8.31358 13.6734 8.46481 13.6389 8.61071C13.6045 8.7566 13.5196 8.89061 13.3949 8.99579C13.2701 9.10096 13.1113 9.17258 12.9383 9.20159C12.7654 9.2306 12.5861 9.21569 12.4232 9.15876C12.2603 9.10182 12.121 9.00541 12.0231 8.88172C11.9251 8.75803 11.8728 8.61261 11.8728 8.46385C11.8731 8.26441 11.9672 8.07321 12.1344 7.9322C12.3016 7.79118 12.5282 7.71188 12.7647 7.71167ZM12.7293 9.78443C13.1389 9.78456 13.5393 9.88714 13.8798 10.0792C14.2203 10.2713 14.4856 10.5442 14.6423 10.8634C14.7989 11.1827 14.8398 11.534 14.7598 11.8729C14.6798 12.2117 14.4825 12.523 14.1928 12.7673C13.9031 13.0116 13.5341 13.1779 13.1324 13.2453C12.7306 13.3126 12.3142 13.278 11.9358 13.1457C11.5574 13.0135 11.234 12.7895 11.0064 12.5022C10.7789 12.2149 10.6575 11.8771 10.6575 11.5316C10.6582 11.0683 10.8767 10.6242 11.2651 10.2966C11.6536 9.96907 12.1801 9.78487 12.7293 9.78443ZM9.87323 8.44708C10.0496 8.44713 10.2219 8.49128 10.3685 8.57396C10.5151 8.65664 10.6294 8.77413 10.6968 8.91158C10.7643 9.04902 10.7819 9.20026 10.7474 9.34615C10.713 9.49204 10.6281 9.62605 10.5034 9.73122C10.3786 9.83639 10.2198 9.90801 10.0468 9.93701C9.87386 9.96602 9.69459 9.95111 9.53168 9.89417C9.36877 9.83723 9.22953 9.74082 9.13156 9.61713C9.0336 9.49344 8.98131 9.34802 8.98131 9.19926C8.98162 8.99981 9.07569 8.80861 9.2429 8.66759C9.41011 8.52658 9.6368 8.44728 9.87323 8.44708Z" fill="url(#paint14_linear_866_12752)"/>
<path d="M9.87326 9.48953C10.0635 9.48953 10.2177 9.35956 10.2177 9.19923C10.2177 9.0389 10.0635 8.90894 9.87326 8.90894C9.68306 8.90894 9.52887 9.0389 9.52887 9.19923C9.52887 9.35956 9.68306 9.48953 9.87326 9.48953Z" fill="url(#paint15_linear_866_12752)"/>
<path d="M2.50901 3.28101C2.83133 3.28083 3.15106 3.32961 3.45289 3.42503C3.49885 3.32285 3.51941 3.21378 3.51328 3.10462C3.50715 2.99545 3.47446 2.88852 3.41724 2.79046C3.36003 2.69241 3.27952 2.60533 3.18071 2.53465C3.0819 2.46397 2.96691 2.41119 2.84289 2.37959V2.19068C2.84338 1.88845 2.98597 1.59872 3.23937 1.38507C3.49277 1.17141 3.83629 1.05128 4.19456 1.05102H4.60921C4.66812 1.21391 4.78744 1.35656 4.9496 1.45799C5.11176 1.55942 5.30823 1.61429 5.51011 1.61452H19.9415C20.1434 1.61429 20.3399 1.55942 20.502 1.45799C20.6642 1.35656 20.7835 1.21391 20.8424 1.05102H21.1668C21.525 1.05128 21.8686 1.17141 22.122 1.38507C22.3754 1.59872 22.518 1.88845 22.5185 2.19068V2.37959C22.3245 2.42925 22.1545 2.53016 22.0336 2.66744C21.9127 2.80473 21.8473 2.97115 21.847 3.14217C21.8473 3.23879 21.868 3.33458 21.9082 3.42507C22.4824 3.24378 23.1128 3.2334 23.6949 3.39565C23.7697 3.19054 23.7456 2.96882 23.6279 2.77859C23.5101 2.58836 23.3082 2.44497 23.066 2.3795V2.19059C23.0653 1.76592 22.8649 1.35882 22.5089 1.05859C22.1529 0.758371 21.6702 0.589539 21.1668 0.589136H20.8424C20.7835 0.426248 20.6642 0.2836 20.502 0.182167C20.3399 0.0807334 20.1434 0.0258669 19.9415 0.0256348H5.51011C5.30823 0.0258717 5.11176 0.0807392 4.9496 0.182171C4.78744 0.283603 4.66812 0.426248 4.60921 0.589136H4.19456C3.69113 0.589539 3.20845 0.758383 2.8524 1.05863C2.49636 1.35887 2.29603 1.76599 2.29536 2.19068V2.37959C2.05309 2.44505 1.85118 2.58844 1.73343 2.77867C1.61568 2.9689 1.59158 3.19062 1.66636 3.39574C1.93819 3.31982 2.22267 3.28109 2.50901 3.28101Z" fill="url(#paint16_linear_866_12752)"/>
<path d="M2.51004 3.74292C2.03385 3.74332 1.57127 3.87696 1.19477 4.1229C0.818259 4.36885 0.549096 4.7132 0.429443 5.10202H4.59004C4.47041 4.71329 4.20134 4.36899 3.82495 4.12306C3.44857 3.87712 2.98613 3.74343 2.51004 3.74292Z" fill="url(#paint17_linear_866_12752)"/>
<path d="M4.65771 6.03698V5.56396H0.361328V6.03698C0.361459 6.12818 0.404467 6.21561 0.480917 6.2801C0.557367 6.34458 0.661016 6.38085 0.769126 6.38095H4.24991C4.35802 6.38085 4.46167 6.34458 4.53812 6.2801C4.61457 6.21561 4.65758 6.12818 4.65771 6.03698Z" fill="url(#paint18_linear_866_12752)"/>
<path d="M20.7715 5.10207H24.9321C24.8129 4.71306 24.544 4.36846 24.1674 4.12244C23.7908 3.87642 23.3281 3.74292 22.8518 3.74292C22.3755 3.74292 21.9127 3.87642 21.5362 4.12244C21.1596 4.36846 20.8906 4.71306 20.7715 5.10207Z" fill="url(#paint19_linear_866_12752)"/>
<path d="M20.7036 6.03698C20.7037 6.12818 20.7468 6.21561 20.8232 6.2801C20.8997 6.34458 21.0033 6.38085 21.1114 6.38095H24.5922C24.7003 6.38085 24.804 6.34458 24.8804 6.2801C24.9569 6.21561 24.9999 6.12818 25 6.03698V5.56396H20.7036V6.03698Z" fill="url(#paint20_linear_866_12752)"/>
<defs>
<linearGradient id="paint0_linear_866_12752" x1="15.3445" y1="9.18464" x2="15.3445" y2="9.49831" gradientUnits="userSpaceOnUse">
<stop stop-color="#E2B64A"/>
<stop offset="0.473958" stop-color="#FFE684"/>
<stop offset="1" stop-color="#CF9E4B"/>
</linearGradient>
<linearGradient id="paint1_linear_866_12752" x1="15.3245" y1="13.4798" x2="15.3245" y2="13.7935" gradientUnits="userSpaceOnUse">
<stop stop-color="#E2B64A"/>
<stop offset="0.473958" stop-color="#FFE684"/>
<stop offset="1" stop-color="#CF9E4B"/>
</linearGradient>
<linearGradient id="paint2_linear_866_12752" x1="16.4548" y1="11.3575" x2="16.4548" y2="11.6712" gradientUnits="userSpaceOnUse">
<stop stop-color="#E2B64A"/>
<stop offset="0.473958" stop-color="#FFE684"/>
<stop offset="1" stop-color="#CF9E4B"/>
</linearGradient>
<linearGradient id="paint3_linear_866_12752" x1="10.0071" y1="13.5631" x2="10.0071" y2="13.8767" gradientUnits="userSpaceOnUse">
<stop stop-color="#E2B64A"/>
<stop offset="0.473958" stop-color="#FFE684"/>
<stop offset="1" stop-color="#CF9E4B"/>
</linearGradient>
<linearGradient id="paint4_linear_866_12752" x1="12.765" y1="14.4693" x2="12.765" y2="14.783" gradientUnits="userSpaceOnUse">
<stop stop-color="#E2B64A"/>
<stop offset="0.473958" stop-color="#FFE684"/>
<stop offset="1" stop-color="#CF9E4B"/>
</linearGradient>
<linearGradient id="paint5_linear_866_12752" x1="12.6807" y1="3.68792" x2="12.6807" y2="4.3792" gradientUnits="userSpaceOnUse">
<stop stop-color="#E2B64A"/>
<stop offset="0.473958" stop-color="#FFE684"/>
<stop offset="1" stop-color="#CF9E4B"/>
</linearGradient>
<linearGradient id="paint6_linear_866_12752" x1="9.07465" y1="11.3575" x2="9.07465" y2="11.6712" gradientUnits="userSpaceOnUse">
<stop stop-color="#E2B64A"/>
<stop offset="0.473958" stop-color="#FFE684"/>
<stop offset="1" stop-color="#CF9E4B"/>
</linearGradient>
<linearGradient id="paint7_linear_866_12752" x1="12.6806" y1="2.19942" x2="12.6806" y2="2.73467" gradientUnits="userSpaceOnUse">
<stop stop-color="#E2B64A"/>
<stop offset="0.473958" stop-color="#FFE684"/>
<stop offset="1" stop-color="#CF9E4B"/>
</linearGradient>
<linearGradient id="paint8_linear_866_12752" x1="12.6806" y1="5.42787" x2="12.6806" y2="6.11369" gradientUnits="userSpaceOnUse">
<stop stop-color="#E2B64A"/>
<stop offset="0.473958" stop-color="#FFE684"/>
<stop offset="1" stop-color="#CF9E4B"/>
</linearGradient>
<linearGradient id="paint9_linear_866_12752" x1="11.5805" y1="11.5266" x2="13.2276" y2="11.5305" gradientUnits="userSpaceOnUse">
<stop stop-color="#E2B64A"/>
<stop offset="0.473958" stop-color="#FFE684"/>
<stop offset="1" stop-color="#CF9E4B"/>
</linearGradient>
<linearGradient id="paint10_linear_866_12752" x1="18.8186" y1="19.0964" x2="18.8186" y2="19.6539" gradientUnits="userSpaceOnUse">
<stop stop-color="#E2B64A"/>
<stop offset="0.473958" stop-color="#FFE684"/>
<stop offset="1" stop-color="#CF9E4B"/>
</linearGradient>
<linearGradient id="paint11_linear_866_12752" x1="12.7593" y1="10.4602" x2="12.7593" y2="15.4234" gradientUnits="userSpaceOnUse">
<stop stop-color="#E2B64A"/>
<stop offset="0.473958" stop-color="#FFE684"/>
<stop offset="1" stop-color="#CF9E4B"/>
</linearGradient>
<linearGradient id="paint12_linear_866_12752" x1="6.26816" y1="19.0964" x2="6.26816" y2="19.6539" gradientUnits="userSpaceOnUse">
<stop stop-color="#E2B64A"/>
<stop offset="0.473958" stop-color="#FFE684"/>
<stop offset="1" stop-color="#CF9E4B"/>
</linearGradient>
<linearGradient id="paint13_linear_866_12752" x1="12.7645" y1="8.24567" x2="12.7645" y2="8.55935" gradientUnits="userSpaceOnUse">
<stop stop-color="#E2B64A"/>
<stop offset="0.473958" stop-color="#FFE684"/>
<stop offset="1" stop-color="#CF9E4B"/>
</linearGradient>
<linearGradient id="paint14_linear_866_12752" x1="12.6806" y1="8.08061" x2="12.6806" y2="13.077" gradientUnits="userSpaceOnUse">
<stop stop-color="#E2B64A"/>
<stop offset="0.473958" stop-color="#FFE684"/>
<stop offset="1" stop-color="#CF9E4B"/>
</linearGradient>
<linearGradient id="paint15_linear_866_12752" x1="9.87326" y1="8.98102" x2="9.87326" y2="9.2947" gradientUnits="userSpaceOnUse">
<stop stop-color="#E2B64A"/>
<stop offset="0.473958" stop-color="#FFE684"/>
<stop offset="1" stop-color="#CF9E4B"/>
</linearGradient>
<linearGradient id="paint16_linear_866_12752" x1="12.6806" y1="0.447712" x2="12.6806" y2="2.28432" gradientUnits="userSpaceOnUse">
<stop stop-color="#E2B64A"/>
<stop offset="0.473958" stop-color="#FFE684"/>
<stop offset="1" stop-color="#CF9E4B"/>
</linearGradient>
<linearGradient id="paint17_linear_866_12752" x1="2.50974" y1="3.91167" x2="2.50974" y2="4.64595" gradientUnits="userSpaceOnUse">
<stop stop-color="#E2B64A"/>
<stop offset="0.473958" stop-color="#FFE684"/>
<stop offset="1" stop-color="#CF9E4B"/>
</linearGradient>
<linearGradient id="paint18_linear_866_12752" x1="2.50952" y1="5.6654" x2="2.50952" y2="6.10679" gradientUnits="userSpaceOnUse">
<stop stop-color="#E2B64A"/>
<stop offset="0.473958" stop-color="#FFE684"/>
<stop offset="1" stop-color="#CF9E4B"/>
</linearGradient>
<linearGradient id="paint19_linear_866_12752" x1="22.8518" y1="3.91167" x2="22.8518" y2="4.64598" gradientUnits="userSpaceOnUse">
<stop stop-color="#E2B64A"/>
<stop offset="0.473958" stop-color="#FFE684"/>
<stop offset="1" stop-color="#CF9E4B"/>
</linearGradient>
<linearGradient id="paint20_linear_866_12752" x1="22.8518" y1="5.6654" x2="22.8518" y2="6.10679" gradientUnits="userSpaceOnUse">
<stop stop-color="#E2B64A"/>
<stop offset="0.473958" stop-color="#FFE684"/>
<stop offset="1" stop-color="#CF9E4B"/>
</linearGradient>
</defs>
</svg>
